<svg class="board--bb" viewBox="0 0 66 127">
  <path class="board--bb__base" d="M63.3520997,66.1620132 C63.0570997,73.4710132 62.7570997,84.8210132 62.0910997,96.1510132 C61.5900997,104.695013 60.6480997,113.214013 59.8050997,121.735013 C59.7440997,122.357013 58.9090997,123.380013 58.4090997,123.395013 C56.5990997,123.449013 54.5820997,123.603013 52.9910997,122.915013 C41.8860997,118.105013 30.6150997,117.541013 19.1190997,121.163013 C15.9400997,122.165013 12.8310997,123.392013 9.68709972,124.509013 C9.44109972,124.596013 9.17809972,124.648013 8.91809972,124.684013 C5.66809972,125.143013 5.02709972,124.875013 4.62909972,121.667013 C3.76109972,114.677013 3.05109972,107.665013 2.43909972,100.648013 C1.71309972,92.3120132 0.924099717,83.9700132 0.587099717,75.6130132 C0.155099717,64.9390132 0.0170997173,54.2480132 9.97173293e-05,43.5640132 C-0.0129002827,35.3060132 1.24609972,27.1450132 3.24509972,19.1520132 C4.86609972,12.6690132 7.56309972,6.58501325 11.8460997,1.34301325 C12.2750997,0.818013247 13.1190997,0.346013247 13.7780997,0.336013247 C25.2460997,0.163013247 36.7140997,0.0480132473 48.1830997,1.3247251e-05 C48.8470997,-0.00298675275 49.7340997,0.504013247 50.1470997,1.05201325 C55.0540997,7.56401325 58.0530997,14.8940132 59.9370997,22.8290132 C63.0140997,35.7840132 63.3470997,48.9270132 63.3520997,66.1620132" transform="translate(1, 1)"></path>
  <path class="board--bb__detail" d="M62.702431,84.0661006 C62.980252,77.3081094 63.1671584,71.1377265 63.3520997,66.5555708 C63.3499977,59.3100276 63.2899271,52.7876787 62.9923831,46.6984633 L1.27050656,29 C0.455661376,33.9392319 -0.00781416732,38.9304278 9.97173297e-05,43.9575708 C0.0118761353,51.3587032 0.0817174894,58.7631947 0.267133198,66.1630671 L62.702431,84.0661006 Z" transform="translate(1, 1)"></path>
</svg>