<svg class="islands" viewBox="0 0 790 459">
  <path d="M651,459 C650.495,454.465 648.049,451.705 643.869,449.73 C639.564,447.697 635.742,444.663 631.576,442.299 C630.242,441.541 628.5,441.447 626.922,441.186 C624.701,440.819 621.48,441.395 620.418,440.123 C617.753,436.931 615.189,433.158 614.143,429.206 C611.01,417.37 615.141,405.782 616.534,394.124 C617.045,389.852 616.999,386.078 615.017,382.091 C613.441,378.919 613.003,375.188 611.996,371.724 C611.652,370.541 611.225,369.354 610.642,368.275 C609.162,365.538 606.683,363.01 606.199,360.13 C604.917,352.506 603.034,345.786 597.122,339.907 C593.656,336.461 592.649,330.412 590.971,325.389 C590.547,324.12 591.31,321.439 592.34,320.866 C598.191,317.613 601.15,310.841 607.818,308.561 C609.756,307.898 611.984,306.205 612.777,304.408 C615.543,298.15 619.584,293.127 624.873,288.844 C629.752,284.893 629.499,282.232 625.605,277.041 C622.362,272.717 619.622,267.99 616.93,263.287 C613.78,257.784 615.521,252.407 617.824,247.086 C619.78,242.565 622.967,241.293 627.469,243.055 C631.339,244.57 635.208,246.088 639.049,247.673 C639.946,248.043 641.397,248.62 641.46,249.221 C642.007,254.431 646.616,254.641 649.946,256.443 C653.303,258.26 656.745,259.961 659.921,262.06 C663.212,264.234 666.373,266.177 670.513,264.629 C671.093,264.412 671.893,264.343 672.447,264.565 C679.463,267.372 686.498,270.138 693.438,273.126 C702.409,276.988 711.419,280.796 720.17,285.115 C724.515,287.26 728.467,290.305 732.343,293.275 C743.613,301.912 747.842,313.509 745.456,328.202 C748.445,327.914 750.685,327.861 752.86,327.458 C759.439,326.24 760.158,326.681 761.458,333.334 C761.586,333.988 761.785,334.646 761.789,335.303 C761.841,342.901 767.112,346.602 772.77,349.965 C778.483,353.361 784.254,356.659 790,360 L790,363 C786.722,371.184 780.517,376.219 772.5,379.34 C771.75,379.632 771.09,380.217 770.46,380.75 C763.205,386.888 757.237,395.045 746.377,395.422 C744.742,395.479 743.214,397.176 741.542,397.892 C735.125,400.638 728.639,403.81 721.445,401.791 C716.21,400.322 712.159,401.749 708.115,404.891 C700.817,410.56 693.372,416.043 685.937,421.533 C685.037,422.197 683.85,422.555 682.74,422.836 C675.321,424.715 670.352,428.84 669.477,436.9 C669.355,438.023 669.056,439.211 668.518,440.192 C664.411,447.678 658.114,453.263 652,459 L651,459 Z" class="islands__hawaii"></path>
  <path d="M146,0 C147.493,0.836 148.901,1.92 150.494,2.462 C155.156,4.046 159.048,6.344 160.448,11.479 C160.622,12.117 160.73,12.933 161.172,13.314 C167.777,19 163.767,24.577 160.434,29.46 C157.756,33.382 156.692,37.224 157.889,41.502 C159.424,46.988 156.261,50.744 153.14,53.925 C149.847,57.279 147.76,62.269 142.03,63.071 C139.932,63.365 138.077,65.396 135.944,66.741 C127.976,59.589 118.191,63.881 109.487,61.165 C109.397,61.596 109.307,62.027 109.217,62.459 C107.881,60.982 106.338,59.643 105.248,58.004 C102.132,53.319 97.772,51.473 92.27,51.076 C84.127,50.49 78.471,45.409 74.606,38.855 C73.542,37.051 74.946,32.551 76.689,30.609 C79.673,27.283 83.299,24.729 84.179,19.865 C84.44,18.425 85.815,16.737 87.143,16.017 C93.217,12.722 99.525,9.86 105.608,6.581 C109.208,4.639 112.545,2.21 116,0 L118,0 C119.96,3.225 122.571,4.944 126.53,3.942 C128.872,3.35 131.286,3.043 133.635,2.475 C136.773,1.717 139.88,0.831 143,0 L146,0 Z" class="islands__kauai"></path>
  <path d="M0,75 C3.44,67.003 7.932,59.737 14.908,54.324 C16.375,53.186 18.228,52.284 20.035,51.91 C22.361,51.43 24.733,51.62 24.72,48.182 C24.717,47.579 25.998,46.556 26.795,46.433 C31.361,45.728 33.351,42.38 35.164,38.75 C35.682,37.712 36.29,36.71 36.944,35.751 C42.043,28.282 48.958,28.528 53.992,36.722 C47.582,42.276 41.636,48.291 47.964,58.862 C41.587,61.018 35.857,62.798 30.26,64.927 C28.007,65.785 25.609,67.015 24.034,68.76 C19.504,73.779 17.428,80.061 15.817,86.536 C15.392,88.245 14.191,89.76 13.037,91.952 C7.875,88.185 0.625,87.152 0,79 L0,75 Z" class="islands__niihau"></path>
  <path d="M527.6329,136.1291 C536.5969,142.0861 543.9989,148.7951 547.8499,158.7071 C548.4149,160.1631 549.9519,162.5821 550.6139,162.4491 C556.2549,161.3101 562.4299,160.7551 567.2069,157.9311 C573.1189,154.4371 578.4819,153.9861 585.0129,154.8811 C590.9449,155.6931 593.9519,159.6321 597.8899,162.9231 C599.7939,164.5141 602.4159,165.4291 604.8609,166.1401 C607.4349,166.8891 610.0029,167.0791 610.8119,170.4091 C611.0559,171.4171 612.4609,172.4301 613.5639,172.8921 C618.0899,174.7851 622.8839,176.1081 627.2499,178.2961 C638.0039,183.6841 636.4219,191.1131 629.9139,197.7821 C621.6669,206.2331 611.8519,211.3971 599.2899,209.3801 C597.0289,209.0171 594.3349,210.7871 591.9559,211.8341 C586.2149,214.3581 581.1519,219.4341 573.9569,216.2021 C573.2949,215.9051 572.0989,216.6611 571.2019,217.0461 C559.7159,221.9741 552.8589,214.8221 553.8459,205.0861 C554.5689,197.9531 553.3409,191.3361 550.4729,184.7461 C548.8909,181.1101 546.6149,179.9111 543.5909,181.4551 C539.4379,183.5761 535.9289,182.3871 532.2539,180.7241 C528.8369,179.1771 524.2399,178.4951 522.2689,175.8581 C518.1529,170.3501 510.8579,167.0901 509.9799,159.2031 C509.6179,155.9511 514.8379,144.7571 517.6089,142.9471 C520.9529,140.7641 524.2179,138.4601 527.6329,136.1291" class="islands__maui"></path>
  <path d="M341.1377,70.3911 C339.0357,69.1631 337.7617,68.4181 336.4867,67.6731 C336.6167,67.2441 336.7467,66.8151 336.8757,66.3861 L346.9567,66.3861 C346.5277,68.4161 344.7157,72.1271 345.7097,73.1731 C348.9797,76.6161 349.8727,80.6031 351.4827,84.7401 C352.9407,88.4841 357.9687,90.8401 362.3087,94.5701 C361.2477,95.5401 359.6867,97.4051 357.7267,98.6361 C355.6587,99.9351 353.2107,100.6291 350.4957,101.7691 C348.6017,98.5691 345.6897,99.4201 342.4037,100.9981 C339.8817,102.2101 337.0247,102.7011 334.4057,103.7371 C331.2857,104.9721 328.9597,104.3931 327.3597,101.3491 C327.1317,100.9161 326.8247,100.3981 326.4187,100.2031 C322.6237,98.3831 319.1517,96.4481 317.2567,92.2041 C316.0077,89.4071 313.5707,89.7341 310.9797,91.3591 C305.9287,94.5281 302.7957,93.1631 301.4627,88.1421 C303.0517,86.2521 304.4037,84.6451 305.7547,83.0381 C303.6387,82.0221 301.5227,81.0051 298.6927,79.6451 C299.1127,82.1231 299.3447,83.4921 299.6537,85.3151 C296.6697,84.0551 294.0567,82.9521 291.4437,81.8491 C291.0697,82.2391 290.6967,82.6281 290.3227,83.0181 C295.1657,86.0621 302.0997,87.9131 298.1897,96.1541 C292.0697,92.3311 285.8677,95.0801 279.6117,97.0211 C276.3197,98.0421 274.4277,97.4281 273.7017,93.4981 C272.5917,87.4871 271.3937,81.2261 263.9217,79.4361 C263.3047,79.2891 262.7637,78.2591 262.4437,77.5271 C260.4697,73.0031 258.9467,68.3431 253.1987,66.7641 C251.7787,66.3751 250.1157,63.2561 250.2357,61.5071 C250.7287,54.3711 248.9407,48.3891 242.2917,43.9241 C248.7707,40.0181 255.3027,39.8801 260.8267,41.4281 C272.3327,44.6521 276.9287,36.2011 283.2997,30.2661 C286.2947,27.4751 289.3787,24.7301 292.7047,22.3621 C294.5187,21.0691 296.9247,20.6061 299.0447,19.7761 C300.6487,20.7991 302.5877,21.9451 304.4317,23.2291 C307.8987,25.6421 311.1117,28.1971 311.0797,33.0831 C311.0727,34.1891 311.9297,35.3781 312.5947,36.3951 C314.2987,39.0061 316.0387,41.6011 317.9287,44.0781 C318.7687,45.1781 319.8657,46.2581 321.0867,46.8551 C323.5907,48.0781 325.5467,53.2821 324.5527,55.7661 C323.8797,57.4501 323.4367,59.5001 323.7407,61.2371 C324.2717,64.2711 334.2217,72.0581 337.2417,72.1191 C337.9707,72.1331 338.7137,71.4981 341.1377,70.3911" class="islands__oahu"></path>
  <path d="M465.8065,96.2529 C467.8675,98.5009 469.1685,100.0449 470.6035,101.4539 C472.3745,103.1939 474.0095,105.7779 476.1345,106.3259 C483.6835,108.2739 491.2175,109.2999 498.9645,105.8199 C501.9145,104.4949 506.1105,105.4779 509.6355,106.0479 C512.5925,106.5259 515.3985,107.9329 518.7125,109.0819 C513.2165,116.1239 509.6845,124.4639 499.1545,127.7359 C489.3615,130.7789 480.7045,131.6189 471.2935,127.5809 C465.3605,125.0359 458.9015,123.7349 452.9005,121.3239 C445.6205,118.3989 438.5395,118.0859 431.0135,120.3489 C427.6575,121.3579 423.8625,120.8509 420.2785,121.1729 C414.8495,121.6609 409.4385,122.5759 404.0055,122.6979 C401.3715,122.7559 398.7055,121.4239 396.0535,120.7209 C397.3925,116.9669 398.6385,113.1739 400.1475,109.4889 C400.4565,108.7329 401.7535,108.3869 402.5855,107.8349 C408.3875,103.9909 409.0415,101.6109 405.9755,95.5219 C409.0065,95.0679 412.0305,94.5579 415.0735,94.2059 C415.7835,94.1229 416.9115,94.3289 417.2445,94.8159 C421.6595,101.2639 428.7405,99.8979 434.9275,100.7249 C443.4505,101.8639 452.0785,102.2069 460.6095,103.2969 C465.6405,103.9389 464.6395,100.1789 465.8065,96.2529" class="islands__molokai"></path>
  <path d="M458.6507,156.8325 C460.4777,156.8325 462.3327,157.0375 464.1267,156.7955 C470.2607,155.9675 475.9217,157.4875 480.3317,161.5175 C487.2477,167.8365 493.6827,174.6935 500.1087,181.5225 C500.8827,182.3445 500.9677,184.8175 500.3057,185.8265 C495.1467,193.6865 490.2067,201.4725 480.5947,205.3195 C473.5197,208.1515 466.2597,207.9555 460.3297,205.5815 C456.6627,204.1125 452.7837,196.2765 453.5027,192.0675 C455.5097,180.3215 450.5137,174.7405 440.5367,171.0915 C438.4327,170.3225 435.8057,168.1285 435.3737,166.1615 C433.9487,159.6745 435.4477,158.0225 442.2427,157.0805 C445.0297,156.6945 447.8647,156.6105 450.6817,156.5135 C453.3357,156.4215 455.9947,156.4935 458.6507,156.4935 L458.6507,156.8325" class="islands__lanai"></path>
  <path d="M523.5662,238.3797 C516.9842,240.2757 511.0862,241.9747 504.0912,243.9897 C501.9402,242.6907 498.6912,240.7267 495.1452,238.5837 C499.5482,232.5677 503.5332,226.9057 511.3862,224.8347 C516.1422,223.5807 520.6022,220.5667 524.6972,217.6447 C527.7522,215.4657 530.4872,215.2287 533.3632,216.9367 C536.3392,218.7057 539.1712,220.5597 537.3512,225.2047 C535.8322,229.0837 534.0472,233.6757 539.6762,236.2117 C537.1812,241.5857 528.9512,242.4267 523.5662,238.3797" class="islands__kahoolawe"></path>
</svg>