<?xml version="1.0" encoding="UTF-8" standalone="no"?>
<svg width="169px" height="110px" viewBox="0 0 169 110" version="1.1" xmlns="http://www.w3.org/2000/svg" xmlns:xlink="http://www.w3.org/1999/xlink" xmlns:sketch="http://www.bohemiancoding.com/sketch/ns">
    <!-- Generator: Sketch 3.4.2 (15855) - http://www.bohemiancoding.com/sketch -->
    <title>tide</title>
    <desc>Created with Sketch.</desc>
    <defs>
        <rect id="path-1" x="0" y="0" width="160.848759" height="102.247396" rx="11"></rect>
    </defs>
    <g id="Page-1" stroke="none" stroke-width="1" fill="none" fill-rule="evenodd" sketch:type="MSPage">
        <g id="tide" sketch:type="MSLayerGroup" transform="translate(4.000000, 4.000000)">
            <g id="tide__masked">
                <mask id="mask-2" sketch:name="Mask" fill="white">
                    <use xlink:href="#path-1"></use>
                </mask>
                <use id="Mask" sketch:type="MSShapeGroup" xlink:href="#path-1"></use>
                <path d="M-0.139629777,85.2082622 C-0.139629777,85.2082622 19.9452462,28.5488776 34.099937,31.1539065 C48.2546278,33.7589353 53.4017881,48.0865966 64.9828988,42.8765378 C76.5640094,37.6664791 83.6413548,12.2674448 94.5790705,16.8262459 C105.516786,21.385047 111.950736,91.0695785 126.748822,85.8595195 C141.546908,80.6494606 160.631784,30.5026492 160.631784,30.5026492 L160.631784,101.000962 L-0.00311866803,101.000962 L-0.139629777,85.2082622 Z" id="Path-Copy" fill="#FF0000" sketch:type="MSShapeGroup" mask="url(#mask-2)"></path>
                <path d="M-0.139629777,85.2082622 C-0.139629777,85.2082622 19.9452462,28.5488776 34.099937,31.1539065 C48.2546278,33.7589353 53.4017881,48.0865966 64.9828988,42.8765378 C76.5640094,37.6664791 83.6413548,12.2674448 94.5790705,16.8262459 C105.516786,21.385047 111.950736,91.0695785 126.748822,85.8595195 C141.546908,80.6494606 160.631784,30.5026492 160.631784,30.5026492" id="Path" stroke="#979797" stroke-width="6" sketch:type="MSShapeGroup" mask="url(#mask-2)"></path>
            </g>
            <rect id="tide__outline" stroke="#979797" stroke-width="7" sketch:type="MSShapeGroup" x="0" y="0" width="160.848759" height="102.247396" rx="11"></rect>
        </g>
    </g>
</svg>