<svg class="logo-surfornah" viewBox="0 0 1000 504">
  <path class="logo-surfornah__surf" d="M32.420629,310.714381 C29.4265664,313.653693 26.7210214,316.284802 24.0560781,318.957127 C23.7257285,319.289322 23.4605876,319.830677 23.4279832,320.29329 C23.175761,323.863157 22.8072704,327.437946 22.8257257,331.009659 C22.8503328,335.780351 23.0601078,340.56027 23.4661241,345.313121 C23.6082298,346.972251 24.5703654,348.561252 25.1578587,350.182241 L26.2793249,349.908487 C32.7725098,337.684321 33.2037483,324.476488 32.420629,310.714381 M502.692693,267.375833 C502.439856,277.816603 502.062138,288.19278 504.614504,298.313659 C505.65046,302.422421 507.682387,306.291879 509.393192,310.212397 C510.079114,311.783557 511.014797,313.27659 512.032298,314.661352 C512.85725,315.784048 513.97441,316.692048 514.962383,317.695401 C515.354865,317.531764 515.747963,317.368127 516.14106,317.203875 C516.14106,308.522508 516.169358,299.840527 516.112762,291.15916 C516.103535,289.735642 515.719049,288.314585 515.508659,286.892913 C515.349944,286.916905 515.190613,286.941512 515.031898,286.966119 C514.701548,292.279396 514.371813,297.592673 514.041464,302.906565 C513.750486,302.90718 513.459507,302.90718 513.168529,302.907795 C512.746518,299.04941 512.325122,295.191025 511.903111,291.333255 C511.709946,291.341252 511.517396,291.348634 511.324231,291.356632 C511.248564,292.302773 511.172897,293.248298 511.097231,294.193824 C506.15675,285.898173 506.314236,276.140248 502.692693,267.375833 M561.859725,51.7842562 C558.027793,73.5012066 549.58573,93.7540375 542.755428,114.532229 C548.028719,108.908903 553.457034,103.470746 558.046863,97.3989566 C564.79227,88.4752105 571.135352,79.228497 577.288345,69.8808946 C583.78276,60.0146986 588.851812,49.3715351 591.301443,37.7668512 C592.224208,33.3966395 593.861807,28.5275198 588.883186,24.6574463 C585.651665,22.1456819 582.208524,20.7701479 578.33722,22.1998174 C572.97842,24.1782241 569.858862,28.796967 566.755913,32.9654009 C562.551183,38.6127185 559.390408,45.0363884 555.781784,51.127248 C555.989099,51.3197982 556.196413,51.5123483 556.403728,51.7048985 C556.920476,51.479744 557.714053,51.3954648 557.910909,51.0079038 C560.019118,46.8696135 561.984606,42.657502 564.098352,38.5216724 C564.863631,37.0243335 565.921734,35.6770977 566.846344,34.260962 C567.09426,34.3938401 567.342176,34.5267182 567.590707,34.6602114 C563.836287,40.3665859 561.153503,46.4500633 560.564779,53.5621154 C561.095061,52.834362 561.477086,52.3096167 561.859725,51.7842562 M509.343363,354.90987 C509.058537,354.860656 508.774325,354.811442 508.490114,354.762228 C508.739875,352.98929 508.699274,351.106851 509.316295,349.472328 C510.021903,347.604037 509.885333,347.031308 507.761745,346.712032 C503.495498,346.071018 498.937658,345.979972 495.38317,343.134782 C491.571538,340.084123 486.285329,338.765801 484.134058,333.697979 C483.955041,333.275968 483.128244,333.128941 482.687163,332.898865 C481.110466,338.693825 479.160358,344.337452 478.080724,350.143485 C475.778734,362.531288 473.886452,374.996603 471.909891,387.442848 C471.017271,393.066174 469.7254,398.714722 469.67065,404.36204 C469.570991,414.670547 470.243379,424.986437 470.622327,435.298636 C470.887468,442.514037 471.884669,449.579951 474.755696,456.299521 C476.11216,459.47383 477.180721,460.030565 479.025634,457.213058 C483.105483,450.979477 487.399413,444.667154 490.104958,437.795636 C497.682083,418.551694 502.493376,398.468036 506.270558,378.149997 C506.946022,374.516766 507.1681,370.798026 507.853406,367.166641 C509.063458,360.75712 510.4839,354.388201 511.764082,347.991598 C511.869277,347.462547 511.578914,346.854753 511.471873,346.283869 C511.279323,346.299864 511.086773,346.315858 510.894222,346.331853 C510.377474,349.191192 509.860111,352.050531 509.343363,354.90987 M551.769605,313.630932 C555.185064,311.35724 558.167438,308.409316 561.241473,305.649635 C569.441157,298.289052 575.687041,289.365306 581.106743,279.887286 C586.393568,270.641803 591.648403,261.34403 596.246845,251.748512 C599.822249,244.287039 602.512414,236.383871 605.294241,228.569287 C606.302515,225.737016 607.590694,224.298119 610.660423,224.956358 C611.249147,225.082469 611.876011,225.029564 613.201716,225.094157 C611.356188,229.81625 609.605396,234.274432 607.871214,238.73938 C605.189661,245.642888 602.795396,252.674352 599.760731,259.418529 C597.162227,265.193188 593.826126,270.635651 590.833294,276.233755 C583.212491,290.489848 574.625862,304.093855 563.651118,316.049804 C555.394223,325.044911 546.124748,332.644182 534.314596,336.599765 C533.543165,336.858139 532.84494,337.335516 531.724089,337.910706 C534.624029,338.983573 537.725133,337.852879 542.666843,334.768386 C545.855916,332.777676 549.239386,331.09763 552.659765,329.516627 C547.794952,336.575158 540.040041,338.319798 532.56565,341.419056 C531.302078,350.655311 530.330715,360.67161 528.482725,370.523042 C526.178275,382.806265 523.344158,395.001518 520.374703,407.145712 C517.969364,416.98361 515.347483,426.79444 512.222388,436.423178 C509.632496,444.402013 506.477257,452.237512 503.005818,459.879846 C499.400885,467.81685 495.512972,475.686184 490.994503,483.12797 C487.717459,488.525526 483.245128,493.027386 478.308954,497.317625 C468.314186,506.004528 450.521445,505.293384 440.311365,497.207508 C430.157882,489.16654 423.833256,479.044431 419.840762,466.782739 C413.19932,446.386572 411.204919,425.497648 411.63062,404.279606 C411.870539,392.327963 412.471566,380.361555 413.51306,368.45482 C414.31771,359.261626 416.059889,350.150252 417.387439,341.003197 C417.730093,338.642766 418.081358,336.283565 418.492911,333.488204 C413.856328,338.31057 409.84661,342.937311 405.363205,347.047918 C396.468373,355.201464 386.235532,360.585486 374.024284,362.32951 C364.149476,363.739494 355.170364,361.818914 347.781482,355.58964 C342.500195,351.136994 338.46833,345.153175 335.856292,338.516655 C331.005627,326.193445 330.247115,313.409468 331.490386,300.367733 C331.802896,297.083922 331.114513,293.669079 331.674324,290.451092 C333.30331,281.097338 332.878224,271.499974 335.60653,262.253876 C337.775641,254.90375 339.073663,247.297097 340.788774,239.811633 C341.012083,238.837809 341.413793,237.905202 341.792127,236.776968 C325.286334,240.577527 309.204398,240.439727 294.049532,231.119193 C292.105575,236.675464 290.258816,242.181291 288.24719,247.626831 C286.858122,251.388018 285.026743,254.994796 283.765631,258.794125 C279.096444,272.858283 273.295948,286.475824 267.638787,300.14873 C265.898454,304.355305 263.7398,308.38963 261.749705,312.49101 C257.945456,320.331431 254.289464,328.249364 250.264366,335.974746 C246.342617,343.500812 241.487032,350.478756 235.081817,356.097775 C230.871551,359.791293 225.914461,363.122472 220.185325,363.036348 C216.079024,362.97483 211.741417,361.459651 207.967926,359.638114 C200.739605,356.14822 197.580675,349.054623 195.290374,342.012086 C194.13938,338.472362 195.258385,334.198733 195.3279,330.256684 C195.358659,328.495434 195.332822,326.732954 194.603223,324.791458 C192.028095,327.666792 189.482496,330.569808 186.872303,333.413153 C175.268235,346.053793 160.807903,353.194144 143.813045,354.588748 C138.718156,355.006453 133.63557,353.293802 128.752301,350.714368 C124.623854,348.534184 121.73191,345.785577 120.307777,341.741408 C118.576672,336.827381 117.113782,331.718342 116.389105,326.573624 C115.175362,317.950084 114.498053,309.242265 113.848427,300.551055 C112.839538,287.061471 115.004343,273.729988 116.159029,260.350521 C116.391566,257.651743 116.486918,254.941276 116.683159,251.595948 C114.06866,252.854598 111.665167,253.7343 109.560034,255.079691 C104.208001,258.499455 98.9174856,262.028106 93.745084,265.713627 C90.9564903,267.700646 89.6344766,270.029088 89.9962002,274.146462 C90.5947667,280.957693 89.6024875,287.908569 89.2887476,294.800388 C89.2567584,295.499843 89.2844414,296.201144 89.5495823,296.945507 L90.9472627,290.333594 C91.3385147,293.568805 90.8746719,296.631152 90.3733033,299.687963 C89.5871081,304.483877 89.1306473,309.370836 87.8756879,314.042484 C86.5665929,318.919601 84.7216795,323.695214 82.6737579,328.321339 C79.5222102,335.441389 76.1750365,342.490078 72.546112,349.376975 C71.0506187,352.215398 68.6477404,354.587518 66.5912064,357.117122 C61.9644662,362.808117 57.0153736,368.390841 50.4539042,371.678958 C40.8343939,376.498864 30.4003903,378.333319 20.630777,372.647245 C13.0019769,368.207519 5.8850034,362.606955 3.05888392,353.40884 C2.17056948,350.518742 0.268444661,347.757216 0.110959553,344.867118 C-0.168330444,339.750083 0.072203452,334.50263 0.91684038,329.447112 C2.97768066,317.121441 9.19711209,306.830159 17.834186,297.994998 C19.4748609,296.316182 19.6329612,295.017545 18.8929042,292.981927 C15.833633,284.573699 11.6793481,276.317419 10.244142,267.623134 C8.19314452,255.201496 4.16989215,242.985327 5.42731231,230.022949 C6.24980289,221.541515 9.5096216,213.909023 11.9328007,205.957871 C13.5297981,200.7178 17.1956331,196.898171 20.5360399,192.87984 C24.6835578,187.891376 28.6754362,182.650075 33.485499,178.360451 C44.0413075,168.947025 54.7982786,159.652943 68.0577865,154.050533 C74.9963589,151.119219 81.8672619,147.833562 89.0740511,145.78318 C97.7406535,143.317554 106.560435,141.227185 115.83114,141.817139 C123.002864,142.2736 127.817848,146.173202 131.380949,151.562761 C132.630987,153.453812 132.04903,157.053823 131.357572,159.619108 C130.205347,163.896428 128.228786,167.945518 126.711146,172.130562 C123.885027,179.926075 115.260257,186.400804 107.08641,186.765604 C102.336635,186.977839 96.2463905,183.104075 95.0560245,179.098663 C86.6625604,184.853021 81.0656873,192.996108 76.6788658,201.853415 C75.2172071,204.804416 75.7936272,208.841202 75.7376462,212.386462 C75.6964294,214.988042 75.9874077,217.623457 76.4155704,220.196739 C76.9077113,223.149585 77.5567222,226.097509 78.4142779,228.965461 C80.8073133,236.97444 83.3412241,244.941587 85.8277663,252.922883 C85.9778693,253.403951 86.1974872,253.862872 86.5524439,254.751802 C91.6331841,252.040105 96.6271845,249.314259 101.676551,246.696069 C106.992904,243.94008 112.402763,241.362492 117.670517,238.519147 C118.618503,238.007936 119.426845,236.67854 119.70675,235.576144 C122.324325,225.268867 124.614626,214.87485 127.393377,204.612481 C130.148751,194.433775 131.74944,183.851514 137.092245,174.504527 C141.579955,166.653648 144.803479,157.960593 152.061327,151.943555 C153.867485,150.446216 155.557374,148.793853 157.445965,147.412167 C164.099095,142.544893 170.980456,142.099505 178.629557,145.489741 C188.148179,149.709235 192.578678,156.98923 193.321811,166.935399 C193.808415,173.451345 192.354138,179.715069 190.421255,185.892669 C190.09152,186.947081 190.247775,188.150981 189.942033,189.217696 C186.59978,200.890049 183.283365,212.571015 179.815617,224.207073 C175.319294,239.294885 170.458172,254.278116 166.219608,269.437288 C164.031426,277.261714 162.809686,285.359894 161.27113,293.357185 C161.100111,294.244884 161.714672,295.283301 162.170518,297.046396 C165.033548,294.794851 167.600678,292.9038 170.025703,290.84419 C177.011029,284.910815 181.480899,277.093771 185.713927,269.185681 C193.766583,254.141547 199.698727,238.222017 205.123351,222.062569 C209.74763,208.285698 214.832062,194.649702 220.153336,181.125053 C222.989913,173.914573 226.57516,166.972925 230.213928,160.117401 C231.390144,157.900921 233.793023,156.3273 235.666234,154.490384 C239.963855,150.276427 245.012606,147.836023 251.15391,148.076557 C256.232805,148.275259 260.276974,150.526804 263.404529,154.454089 C267.331814,159.384111 269.368047,165.105865 269.997373,171.306841 C270.209608,173.400285 269.793749,175.550942 269.772833,177.676375 C269.67502,187.60778 269.927243,197.456136 266.943638,207.240513 C263.517107,218.479167 261.723868,230.21919 258.230282,241.432622 C256.280789,247.690809 255.427539,254.106482 253.666905,260.344984 C250.306813,272.247413 246.68527,284.080943 243.580476,296.049196 C241.753403,303.089272 240.654698,310.323129 239.338836,317.489932 C238.645533,321.268344 238.166926,325.087973 237.643411,328.896529 C237.525912,329.748548 237.626186,330.631326 237.626186,331.49934 C240.382175,328.554491 242.54821,325.324816 244.211647,321.854607 C249.672566,310.464004 254.841892,298.933142 260.348949,287.565301 C262.900085,282.298162 266.131605,277.363218 268.770096,272.134221 C272.146183,265.443564 275.302037,258.6391 278.429593,251.826639 C281.98162,244.090183 285.43645,236.307589 288.814998,228.494236 C289.175491,227.660057 288.950336,226.418631 288.6489,225.477412 C286.212802,217.886138 282.657084,210.541549 283.607531,202.224982 C284.669325,192.935821 286.695716,183.864433 290.389849,175.255042 C292.408857,170.548944 294.367578,165.713044 297.156172,161.462791 C302.705061,153.004734 309.15949,145.3624 319.568886,142.470456 C326.16173,140.639077 333.615205,143.456584 336.368118,149.625571 C337.396693,151.930636 337.103254,154.930235 337.011592,157.599485 C336.929774,159.998672 335.925806,162.394783 336.022389,164.764442 C336.108514,166.879418 336.795666,169.146342 337.821164,171.014632 C341.742297,178.158058 347.678748,182.483362 356.002082,183.149598 C357.72519,183.287397 359.435995,183.701411 361.156028,183.722942 C365.570533,183.778308 369.571023,183.972704 373.498923,180.250888 C377.679046,176.288538 383.567512,173.902884 389.713123,174.606646 C397.492026,175.497421 404.1753,178.796611 408.144417,185.938192 C409.886596,189.07313 411.516813,192.484282 412.147984,195.961258 C412.761314,199.33796 412.021257,202.958887 411.891455,206.472773 C411.547572,215.798845 406.91714,223.943162 404.63053,232.735261 C404.332785,233.881334 403.429091,234.856388 402.984934,235.981546 C396.783958,251.6913 390.00041,267.206659 386.975589,283.978208 C385.580984,291.706667 383.595811,299.377914 382.89451,307.16666 C382.383298,312.8392 383.274073,318.697523 384.051041,324.403282 C384.486586,327.597892 388.432941,329.244104 391.719212,328.597553 C402.754858,326.427827 410.103753,319.262255 416.448681,310.666397 C417.764542,308.883617 418.956754,306.971649 420.491619,305.397413 C424.728952,301.052424 424.706806,295.267922 425.970378,289.925117 C429.775243,273.838874 433.445384,257.720642 437.312997,241.649779 C441.561404,223.996068 445.099897,206.107974 450.519599,188.814756 C458.212993,164.265534 466.321015,139.829505 475.92084,115.890538 C488.104405,85.5076005 504.209103,57.6518068 525.631384,32.8903495 C532.692376,24.7288068 540.407916,17.2402668 549.56912,11.4895997 C559.194167,5.44733899 569.455921,0.564685461 581.00893,0.0430160404 C585.421589,-0.15630105 590.750245,0.278628527 594.216763,2.5904607 C603.390886,8.7096184 612.13131,15.813058 614.835624,27.4263544 C616.421548,34.2388157 617.491955,41.0968 614.64492,48.0402938 C611.490911,55.7318419 609.55003,63.9936583 605.792534,71.348705 C598.351363,85.9148472 588.921942,99.2955448 578.507624,111.918345 C563.74524,129.811976 546.238556,145.045584 530.027433,161.536612 C529.317519,162.258829 528.522097,162.945366 527.652853,163.454732 C520.1557,167.84586 519.73492,176.017245 517.453846,183.038866 C513.894437,193.99577 510.974195,205.159372 507.668238,216.200555 C507.13365,217.985181 507.947528,218.728929 509.083759,219.724284 C518.417827,227.899976 524.326595,238.408416 528.597763,249.795327 C532.473988,260.129057 533.856905,271.069966 534.549593,282.044709 C534.856566,286.900295 534.618493,291.790946 534.621569,296.665602 C534.623414,299.885434 534.742143,303.112034 534.579737,306.323869 C534.359504,310.668858 533.920268,315.002774 533.554238,319.603062 C540.639837,320.266222 546.377586,317.2211 551.769605,313.630932 Z"></path>
  <path class="logo-surfornah__or-nah" d="M572,317.710463 C572,335.976837 581.133187,348.039537 599.571885,348.039537 C618.182907,348.039537 627.316094,335.976837 627.316094,317.710463 L627.316094,255.329073 C627.316094,236.890375 618.182907,225 599.571885,225 C581.133187,225 572,236.890375 572,255.329073 L572,317.710463 Z M585.26897,254.639776 C585.26897,243.783347 589.921725,237.235024 599.571885,237.235024 C609.394369,237.235024 613.8748,243.783347 613.8748,254.639776 L613.8748,318.39976 C613.8748,329.428514 609.394369,335.804513 599.571885,335.804513 C589.921725,335.804513 585.26897,329.428514 585.26897,318.39976 L585.26897,254.639776 Z M640.068091,226.20627 L640.068091,346.833267 L653.509385,346.833267 L653.509385,295.308307 L662.98722,295.308307 C674.188299,295.308307 680.564297,299.616414 680.564297,313.230032 L680.564297,332.185703 C680.564297,340.284944 681.253594,343.386781 682.804513,346.833267 L696.418131,346.833267 C694.177915,342.697484 694.005591,337.70008 694.005591,332.358027 L694.005591,313.574681 C694.005591,300.650359 689.869808,291.689497 678.841054,288.415335 C689.180511,285.141174 693.833267,276.869609 693.833267,263.600639 L693.833267,253.778155 C693.833267,235.85643 685.90635,226.20627 666.950679,226.20627 L640.068091,226.20627 Z M653.509385,283.073283 L653.509385,238.441294 L666.60603,238.441294 C676.600839,238.441294 680.564297,244.127995 680.564297,254.984425 L680.564297,266.530152 C680.564297,279.626797 674.188299,283.073283 663.504193,283.073283 L653.509385,283.073283 Z M746.564497,249.297724 L777.410543,346.833267 L791.36881,346.833267 L791.36881,226.20627 L779.478435,226.20627 L779.478435,313.402356 L751.561901,226.20627 L734.501797,226.20627 L734.501797,346.833267 L746.564497,346.833267 L746.564497,249.297724 Z M849.269768,322.535543 L853.922524,346.833267 L867.363818,346.833267 L844.272364,226.20627 L824.79972,226.20627 L801.708267,346.833267 L814.115615,346.833267 L818.768371,322.535543 L849.269768,322.535543 Z M833.760583,241.370807 L847.374201,310.989816 L820.491613,310.989816 L833.760583,241.370807 Z M920.956669,292.551118 L920.956669,346.833267 L934.397963,346.833267 L934.397963,226.20627 L920.956669,226.20627 L920.956669,280.488419 L891.316893,280.488419 L891.316893,226.20627 L877.875599,226.20627 L877.875599,346.833267 L891.316893,346.833267 L891.316893,292.551118 L920.956669,292.551118 Z M972.653954,225 C954.215256,225 945.94369,237.407348 945.94369,255.673722 L945.94369,265.496206 L958.523363,265.496206 L958.523363,254.812101 C958.523363,244.127995 962.486821,237.0627 972.309305,237.0627 C982.131789,237.0627 986.095248,243.955671 986.095248,254.812101 C986.095248,282.728634 963.520767,286.692093 963.520767,313.057708 C963.520767,315.814896 963.865415,317.882788 964.382388,319.950679 L976.445088,319.950679 C975.928115,317.882788 975.583466,315.642572 975.583466,313.402356 C975.583466,290.310903 999.536542,284.624201 999.536542,255.501398 C999.536542,237.0627 991.264976,225 972.653954,225 L972.653954,225 Z M963.865415,330.117812 L963.865415,346.833267 L976.617412,346.833267 L976.617412,330.117812 L963.865415,330.117812 Z"></path>
  <path class="logo-surfornah__nugget" d="M589.075193,265.691507 C591.574653,261.096222 593.989815,256.458232 596.246845,251.748512 C599.822249,244.287039 602.512414,236.383871 605.294241,228.569287 C606.302515,225.737016 607.590694,224.298119 610.660423,224.956358 C611.249147,225.082469 611.876011,225.029564 613.201716,225.094157 C611.356188,229.81625 609.605396,234.274432 607.871214,238.73938 C605.189661,245.642888 602.795396,252.674352 599.760731,259.418529 C597.162227,265.193188 593.826126,270.635651 590.833294,276.233755 C585.565143,286.088787 586.482288,270.458591 589.075193,265.691507 Z"></path>
</svg>