<svg class="logo-surfstatus" viewBox="0 0 250 50">
  <path class="logo-surfstatus__surf" d="M0.936,34.816 L0.936,37.696 C0.936,44.032 3.096,49.72 12.024,49.72 C21.024,49.72 23.4,43.24 23.4,36.4 C23.4,28.336 21.168,25.312 13.968,19.984 C9.72,16.888 9.072,15.232 9.072,11.776 C9.072,8.608 9.72,6.52 12.168,6.52 C14.616,6.52 15.192,8.536 15.192,11.92 L15.192,14.296 L22.536,14.296 L22.536,11.704 C22.536,6.448 21.168,0.112 12.312,0.112 C3.6,0.112 1.656,6.52 1.656,12.856 C1.656,19.984 4.464,22.576 9.648,26.68 C14.76,30.784 15.912,32.368 15.912,37.552 C15.912,40.648 15.12,43.384 12.24,43.384 C9.432,43.384 8.352,41.368 8.352,37.84 L8.352,34.816 L0.936,34.816 Z M27.72,0.904 L27.72,37.336 C27.72,45.544 31.392,49.72 39.024,49.72 C47.088,49.72 50.472,44.968 50.472,37.336 L50.472,0.904 L43.056,0.904 L43.056,37.48 C43.056,40.72 42.12,43.024 39.168,43.024 C36.288,43.024 35.136,41.008 35.136,37.48 L35.136,0.904 L27.72,0.904 Z M56.736,49 L64.152,49 L64.152,27.472 L65.88,27.472 C70.2,27.472 70.92,28.84 70.92,34.672 C70.92,38.2 70.848,46.12 71.424,49 L78.624,49 C78.12,46.12 78.192,38.272 78.192,34.24 C78.192,27.688 76.536,25.672 73.8,24.376 C75.6,23.584 78.696,21.712 78.696,14.296 L78.696,12.496 C78.696,3.856 74.376,0.904 67.032,0.904 L56.736,0.904 L56.736,49 Z M64.152,7.024 L66.24,7.024 C70.488,7.024 71.208,9.256 71.208,13 L71.208,14.656 C71.208,19.912 69.768,21.352 65.88,21.352 L64.152,21.352 L64.152,7.024 Z M84.168,49 L91.584,49 L91.584,27.328 L102.384,27.328 L102.384,20.416 L91.584,20.416 L91.584,7.816 L102.888,7.816 L102.888,0.904 L84.168,0.904 L84.168,49 Z" id="SURFSTATUS"></path>
  <path class="logo-surfstatus__" d="M181.872,49 L189.288,49 L189.288,7.816 L197.064,7.816 L197.064,0.904 L174.168,0.904 L174.168,7.816 L181.872,7.816 L181.872,49 Z M166.896,36.112 L168.768,49 L176.544,49 L168.48,0.904 L158.04,0.904 L150.264,49 L157.824,49 L159.48,36.112 L166.896,36.112 Z M160.416,29.344 C161.352,22.216 162.864,11.92 163.008,7.96 L163.296,7.96 C163.872,13.36 164.88,21.136 166.032,29.344 L160.416,29.344 Z M137.16,49 L144.576,49 L144.576,7.816 L152.352,7.816 L152.352,0.904 L129.456,0.904 L129.456,7.816 L137.16,7.816 L137.16,49 Z M105.336,34.816 L105.336,37.696 C105.336,44.032 107.496,49.72 116.424,49.72 C125.424,49.72 127.8,43.24 127.8,36.4 C127.8,28.336 125.568,25.312 118.368,19.984 C114.12,16.888 113.472,15.232 113.472,11.776 C113.472,8.608 114.12,6.52 116.568,6.52 C119.016,6.52 119.592,8.536 119.592,11.92 L119.592,14.296 L126.936,14.296 L126.936,11.704 C126.936,6.448 125.568,0.112 116.712,0.112 C108,0.112 106.056,6.52 106.056,12.856 C106.056,19.984 108.864,22.576 114.048,26.68 C119.16,30.784 120.312,32.368 120.312,37.552 C120.312,40.648 119.52,43.384 116.64,43.384 C113.832,43.384 112.752,41.368 112.752,37.84 L112.752,34.816 L105.336,34.816 Z"></path>
  <path class="logo-surfstatus__" d="M226.944,34.816 L226.944,37.696 C226.944,44.032 229.104,49.72 238.032,49.72 C247.032,49.72 249.408,43.24 249.408,36.4 C249.408,28.336 247.176,25.312 239.976,19.984 C235.728,16.888 235.08,15.232 235.08,11.776 C235.08,8.608 235.728,6.52 238.176,6.52 C240.624,6.52 241.2,8.536 241.2,11.92 L241.2,14.296 L248.544,14.296 L248.544,11.704 C248.544,6.448 247.176,0.112 238.32,0.112 C229.608,0.112 227.664,6.52 227.664,12.856 C227.664,19.984 230.472,22.576 235.656,26.68 C240.768,30.784 241.92,32.368 241.92,37.552 C241.92,40.648 241.128,43.384 238.248,43.384 C235.44,43.384 234.36,41.368 234.36,37.84 L234.36,34.816 L226.944,34.816 Z M200.016,0.904 L200.016,37.336 C200.016,45.544 203.688,49.72 211.32,49.72 C219.384,49.72 222.768,44.968 222.768,37.336 L222.768,0.904 L215.352,0.904 L215.352,37.48 C215.352,40.72 214.416,43.024 211.464,43.024 C208.584,43.024 207.432,41.008 207.432,37.48 L207.432,0.904 L200.016,0.904 Z"></path>
</svg>