<svg class="mokes" viewBox="0 0 292 100">
  <defs>
    <circle id="sun" cx="51" cy="45" r="16"></circle>
  </defs>
  <use xlink:href="#sun" x="200" y="-20" />
  <path class="mokes__island" d="M0,100 L13.2457981,87.3769468 L37.6925486,87.3769468 L76.3080717,54.5146795 L102.570585,53.9452438 L126.23956,32 C126.23956,32 134.831602,39.8382849 139.127623,43.7574274 C142.615726,46.939528 139.319526,49.9519322 143.696847,53.945243 C164.817859,73.2133641 200.066999,100 200.066999,100 L0,100 Z" transform="translate(100.033500, 66.000000) scale(-1, 1) translate(-100.033500, -66.000000) "></path>
  <path class="mokes__island" d="M138,99.678639 L183.355904,59.4739354 L202.198801,55.2150392 C202.198801,55.2150392 214.157466,51.461352 218.549329,47.482128 C221.288563,45.0002592 226.72806,45 226.72806,45 C226.72806,45 233.678079,52.1409139 238.075869,56.1017578 C255.674448,71.9518137 292.756139,99.469221 292.756139,99.469221 L138,99.678639 Z" transform="translate(215.378069, 72.339320) scale(-1, 1) translate(-215.378069, -72.339320) "></path>
  <use xlink:href="#sun" y="20" />
</svg>