<svg class="mokes" viewBox="0 0 632 440">
  <g transform="translate(0.000000, 88)">
    <text class="mokes__label" data-label-for="sunset" x="100">SUNSET</text>
    <text class="mokes__label mokes__label--time" data-time-for="sunset" x="100" y="34"></text>
    <text class="mokes__label" data-label-for="sunrise" x="460">SUNRISE</text>
    <text class="mokes__label mokes__label--time" data-time-for="sunrise" x="460" y="34"></text>
    <path class="mokes__island" d="M631.7122,209.7841 C614.4042,210.3111 606.2752,209.5331 588.9742,210.9671 C578.3822,211.8451 567.6562,212.3281 557.0692,211.6901 C547.2422,211.0981 537.5202,211.5861 527.7512,211.8911 C513.9542,212.3221 500.1402,213.2781 486.3622,212.9221 C474.4412,212.6141 462.4902,212.7411 450.6192,212.8901 C439.2292,213.0321 427.8912,211.9381 416.5242,212.3801 C415.7552,212.4101 414.7712,212.1581 414.2202,211.6651 C411.1562,208.9231 407.4342,209.2421 403.7862,209.2631 C387.9872,209.3531 372.1872,209.6171 356.3402,208.2331 C365.6532,206.1681 374.5492,203.0921 382.1952,197.2791 C385.5672,194.7161 389.1932,193.5901 393.3272,193.6761 C405.7572,193.9331 415.1662,187.2961 423.7052,179.5281 C431.3512,172.5721 439.4152,166.2751 448.1952,160.9291 C460.5882,153.3831 474.5322,155.4731 488.0342,155.2051 C492.1982,155.1221 498.2472,151.9221 498.3032,148.4531 C498.4312,140.4631 503.6872,135.8401 509.0792,131.4221 C511.2902,129.6111 514.2832,128.1081 517.0572,127.8321 C519.3662,127.6021 519.6682,131.3261 521.5802,132.7021 C523.4572,134.0531 525.0142,135.8141 527.2082,136.7731 C529.0782,137.5911 530.7562,138.9171 531.4942,140.8051 C534.0292,147.2921 539.2292,151.5321 545.3952,152.6321 C552.4322,153.8871 555.6592,158.5401 559.4332,163.2601 C560.4622,164.5461 561.6682,165.7011 562.8662,166.8411 C570.0472,173.6731 578.5722,179.0261 584.8652,186.8461 C585.4612,187.5861 586.3622,188.4631 587.2052,188.5621 C593.9742,189.3551 597.0522,193.8931 598.8662,199.7581 C599.2042,200.8501 599.6732,201.3571 600.9132,201.3981 C612.1642,201.7691 614.6642,202.9781 623.7122,206.6591 L631.7122,209.7841 Z"></path>
    <circle id="sun" class="mokes__sun" cx="0" cy="0" r="43">
      <animate attributeType="CSS" attributeName="opacity" values="0;0;1;1;1;1;1;0;0;0;0" dur="40s" repeatCount="indefinite" />
    </circle>
    <animateMotion xmlns:xlink="http://www.w3.org/1999/xlink" xlink:href="#sun" dur="40s" begin="0s" fill="freeze" repeatCount="indefinite">
      <mpath xlink:href="#motionPath"></mpath>
    </animateMotion>
    <rect class="mokes__blocker" x="0" y="210" width="351" height="157"></rect>
    <path class="mokes__island" d="M87.1289,212.9661 C93.0719,210.7341 99.4349,210.8311 105.5149,210.8711 C110.7609,210.9051 116.0299,211.2371 121.3319,211.1331 C134.4659,210.8741 147.6079,211.0891 160.7459,210.9731 C165.6639,210.9301 170.5669,211.3701 175.3709,209.0141 C177.8009,207.8221 180.9199,208.4401 184.0089,209.2441 C188.7819,210.4861 194.0199,210.5901 199.0019,210.2691 C223.2589,208.7041 247.5739,209.3461 271.8349,208.1021 C274.8089,207.9501 278.2379,209.3371 280.7239,208.2841 C291.5109,203.7161 302.2499,208.9351 312.9459,207.7671 C314.3789,207.6101 315.9429,208.2481 317.5189,206.8331 C315.4929,204.3521 312.5499,204.1071 310.0219,204.4481 C303.1549,205.3761 296.4079,202.4271 289.3479,204.5871 C286.7339,205.3871 282.7829,201.6811 282.2319,198.6441 C280.3899,188.5001 271.9629,184.9531 264.8419,180.2831 C254.9879,173.8211 245.0639,167.5071 236.3789,159.4811 C230.6539,154.1891 225.0539,148.7641 219.3649,143.4331 C213.9429,138.3511 206.7479,137.7541 200.8669,142.2081 C193.7209,147.6201 184.9599,149.6531 177.2459,153.8621 C176.1979,154.4341 174.4859,154.5191 173.3619,154.0911 C169.6799,152.6881 166.6549,154.4211 164.0699,156.2701 C143.4989,170.9771 122.9289,185.6601 99.9919,196.6011 C98.7949,197.1721 97.5589,197.7951 96.5749,198.6591 C83.7369,209.9461 68.2299,211.5131 52.1289,210.9661 C51.5009,213.4591 53.3009,212.9581 54.6289,212.9601 C65.4619,212.9711 76.2959,212.9661 87.1289,212.9661"></path>
    <path class="mokes__motionPath" id="motionPath" d="M547.000009,326.000003 C547.000009,326.000003 623.000009,101.999997 464,38 C304.999991,-25.9999972 239,-10 145,96 C51,202 171,414.00001 309,414 C447,413.99999 547.000009,326.000003 547.000009,326.000003 Z"></path>
  </g>
</svg>