<svg class="oahu" viewBox="0 0 848 678">
  <defs>
    <path id="oahu" d="M466.482266,589.663991 C463.452467,589.663991 460.422667,589.671703 457.393143,589.659033 C456.567936,589.655453 455.733914,589.656004 454.919449,589.542248 C451.490267,589.062163 450.067087,586.622899 451.301868,583.353745 C451.625506,582.496863 452.093748,581.694517 452.418212,580.83791 C454.18789,576.166234 452.111927,572.515601 447.204478,571.756498 C445.852085,571.547167 444.461958,571.547718 443.087531,571.518797 C438.507576,571.421568 435.264313,569.207611 433.183392,565.227831 C432.334221,563.603583 431.720274,561.856766 430.879918,560.22756 C429.874575,558.278573 428.942223,556.242547 427.625086,554.513358 C423.844172,549.549996 423.440382,546.237047 426.713117,540.931593 C428.512818,538.01362 428.768974,535.125946 427.61462,532.001396 C427.487644,531.657101 427.379122,531.30592 427.265091,530.956942 C427.17943,530.695002 427.083303,530.435541 427.018025,530.168643 C426.295555,527.212109 427.694772,525.109704 430.735038,524.632097 C431.548952,524.50402 432.379668,524.480883 433.203774,524.42194 C435.176449,524.281192 437.002316,523.733624 438.51336,522.405746 C440.408086,520.741008 442.58486,520.397539 444.954438,520.985596 C447.620387,521.646919 450.280826,522.331102 452.932727,523.04586 C456.058929,523.888144 457.846511,522.523908 457.497258,519.29001 C457.367803,518.091036 456.615311,516.957064 456.127788,515.801333 C456.061133,515.643233 455.878518,515.535813 455.756776,515.39837 C453.964236,513.369506 453.873342,511.945225 455.569754,509.834832 C456.370172,508.839129 457.317949,507.949195 458.270683,507.090935 C460.064324,505.475501 461.561045,503.671668 462.605224,501.46322 C463.268751,500.059596 464.232778,498.800852 464.973977,497.430006 C465.757593,495.980935 466.611721,494.532691 467.119901,492.981158 C467.839892,490.782626 466.692149,488.753211 464.464971,488.857326 C460.487119,489.043245 457.93107,487.091228 455.591789,484.30574 C453.945782,482.346011 451.693539,481.214518 449.232515,480.674112 C445.133472,479.773711 441.383131,478.15084 437.952571,475.751514 C434.100319,473.057196 429.961613,473.44804 425.80941,474.77344 C423.811671,475.4108 423.055873,476.683866 423.323046,478.825384 C423.479219,480.075865 423.852435,481.359398 424.41102,482.488136 C425.963379,485.623703 425.873311,488.905527 425.402591,492.194237 C425.138723,494.039936 424.404685,495.832751 422.360947,496.422184 C420.266805,497.026216 418.53734,496.18586 417.281626,494.519195 C416.407116,493.358231 415.6078,492.101139 415.008726,490.780698 C413.907531,488.354103 412.272541,486.458275 410.040405,485.041431 C407.256295,483.273956 405.283895,480.780706 403.62329,477.977591 C402.92919,476.805885 402.151082,475.638861 401.204132,474.67263 C399.772414,473.211991 397.921207,473.054442 396.090932,473.79812 C394.238623,474.550612 393.028631,476.024472 393.158362,478.05306 C393.410111,481.984363 393.740359,485.925306 395.714135,489.501296 C396.643182,491.184212 397.497861,492.918634 398.244844,494.689414 C399.40388,497.437718 400.95624,499.876982 403.150365,501.922372 C404.693635,503.360976 406.430812,504.232732 408.56021,504.303244 C409.383765,504.330512 410.212553,504.399371 411.024264,504.535988 C412.833329,504.84062 413.98603,505.911241 414.453997,507.687255 C414.617331,508.307537 414.789203,508.938286 414.840434,509.573443 C415.075106,512.497199 416.115429,515.119628 417.85233,517.444862 C419.379349,519.488875 419.774876,521.744423 419.522025,524.213159 C419.298095,526.40095 419.163958,528.59783 418.986852,530.790578 C418.957381,531.155807 418.953525,531.530676 418.864834,531.882683 C418.407059,533.704695 416.994071,534.308176 415.603943,533.045851 C413.572325,531.200978 411.588082,529.254194 409.884508,527.111575 C408.173222,524.959867 406.329451,523.966368 403.499343,524.36217 C399.082446,524.979698 395.336237,520.783426 396.110764,516.36405 C396.867112,512.047687 396.238015,511.483869 391.946717,512.757211 C390.541717,513.173946 389.186295,513.755668 387.803329,514.248423 C384.844867,515.302794 383.617798,514.711707 382.367593,511.921262 C381.54817,510.09264 380.622153,508.28743 379.527569,506.613053 C378.526633,505.082729 378.006059,503.459858 377.976311,501.699269 C377.915991,498.097113 375.970033,495.917034 372.825928,494.618076 C370.407872,493.619069 368.378457,492.140802 366.547907,490.265081 C364.406115,488.070129 362.603659,488.153861 360.366015,490.268937 C360.032461,490.584036 359.74463,490.952294 359.389317,491.238473 C356.305257,493.720154 355.331314,496.744996 356.807102,500.525359 C357.496519,502.292008 357.090801,503.953164 355.814429,505.389014 C355.450027,505.798863 355.12997,506.253333 354.827265,506.712485 C352.446669,510.32621 353.599646,514.004111 357.643602,515.640754 C358.319247,515.914262 359.038687,516.10211 359.75427,516.251396 C363.253414,516.981578 366.802961,517.520331 370.244538,518.458468 C372.422138,519.051757 374.545477,520.04746 376.506308,521.185012 C379.117169,522.699361 381.734089,523.388502 384.652888,522.420895 C387.410281,521.506721 389.748185,522.047403 391.49087,524.434885 C393.415068,527.070811 395.811915,528.080836 399.128169,527.495809 C403.004109,526.812176 406.131688,528.435873 408.471244,531.543346 C410.07208,533.669439 411.559987,535.881468 413.182858,537.989933 C416.969832,542.910052 418.549184,548.557598 418.882187,554.655208 C418.977212,556.391558 419.164784,558.128735 419.41791,559.849662 C419.79939,562.443721 419.328669,564.77281 417.60306,566.804429 C416.712024,567.853566 415.855141,568.931624 414.983936,569.997562 C413.462701,571.858961 411.47653,572.808665 409.140279,573.336126 C401.089,575.154556 393.061684,577.080132 385.028308,578.978163 C381.009141,579.927593 376.97455,580.822761 372.987333,581.892555 C368.648385,583.056274 364.384906,584.50562 360.034114,585.617832 C357.024146,586.387401 353.923834,586.804687 350.860156,587.35914 C350.229958,587.473171 349.54357,587.379247 348.950556,587.580315 C342.522148,589.759292 335.734846,589.532057 329.145858,590.60984 C326.721743,591.006468 324.283856,591.617661 322.00159,592.511727 C318.981431,593.695002 315.927393,594.511395 312.713602,594.922346 C304.888456,595.923006 297.078184,597.039074 289.259923,598.095923 C288.261191,598.230887 287.250891,598.378797 286.247476,598.367779 C281.958106,598.32123 277.87917,599.167646 273.91812,600.834036 C272.333259,601.500867 270.580658,601.982605 268.872953,602.103797 C263.750113,602.467098 258.613225,602.737026 253.478541,602.810567 C246.121086,602.916059 240.556721,599.608069 236.997809,593.218497 C232.663267,585.435768 228.4703,577.579498 226.923725,568.621482 C226.63672,566.958673 225.805178,565.324509 224.940583,563.843213 C223.800002,561.889543 223.092406,559.854895 222.891888,557.627992 C222.484242,553.096789 221.312812,548.818161 219.193605,544.750242 C218.058807,542.571265 217.157855,540.203064 216.577786,537.816683 C215.322072,532.649773 214.385313,527.406017 213.229031,522.213491 C212.653369,519.627144 212.032535,517.031983 211.160229,514.535703 C210.102002,511.50673 208.773573,508.571405 207.530804,505.608537 C206.277018,502.6184 204.627705,499.891029 202.261156,497.61868 C201.406477,496.797879 200.611568,495.879299 199.952449,494.895716 C194.4294,486.655763 188.331515,478.890662 181.027219,472.144125 C178.604481,469.90648 176.02805,467.825008 173.42738,465.792839 C170.246641,463.307852 166.457739,462.16424 162.604385,461.206548 C159.61232,460.46287 156.930948,459.167493 154.747288,456.898449 C152.40966,454.469376 150.971056,451.659374 151.15009,448.259113 C151.383935,443.812744 151.060298,439.427798 150.482983,435.072323 C150.290729,433.620498 150.071206,432.173907 149.839013,430.735578 C149.845073,420.218593 142.683728,413.057249 138.001311,404.243286 C137.175002,402.315232 137.450438,400.387178 136.624129,398.459123 C133.043457,391.573215 125.055803,389.094288 120.43288,383.064161 C119.573794,382.014473 118.790453,380.933661 118.06578,379.835772 C116.129187,376.901548 113.662931,374.844315 110.198492,374.353762 C107.187422,373.927662 105.075377,372.54387 103.810573,369.799974 C103.621348,369.389849 103.346463,368.994047 103.029711,368.671511 C99.904886,365.491323 98.2740275,361.533854 97.0643112,357.34612 C96.8100835,356.46555 96.4949843,355.598752 96.1476591,354.750133 C95.1169764,352.231818 93.4497603,350.425783 90.6736376,349.797237 C88.2985501,349.25931 86.2019288,348.210999 84.544353,346.335828 C83.1484417,344.756477 82.2956908,342.997816 82.2827453,340.8731 C82.2764103,339.863626 82.3069837,338.853876 82.3144205,337.844127 C82.3565623,332.070706 82.7204136,326.314087 82.5568045,320.520559 C82.4047636,315.141287 83.2550356,309.733921 83.6657111,304.339226 C83.6794829,304.156336 83.7494438,303.970416 83.7290615,303.793311 C83.000257,297.49601 84.7269673,291.193751 83.6202641,284.878272 C83.179566,282.362161 83.2977282,279.753228 83.0300041,277.200209 C82.6661527,273.731915 81.6572294,270.567151 79.8600074,267.782215 C79.4104953,267.085912 78.918566,266.40944 78.4274631,265.73407 C73.273774,259.088342 66.3878658,254.956798 60.8791393,248.621762 C60.3282666,247.520017 59.777394,246.418271 59.3898551,245.394475 C58.8758909,244.626283 58.2983009,243.914004 57.6810481,243.237257 C57.0637953,242.560786 56.4071551,241.919845 55.734815,241.295156 C54.3901349,240.046052 53.0074445,238.840192 51.5771037,237.691347 C50.0605513,236.53782 48.5698899,235.523388 47.063804,234.575611 C45.5579937,233.627559 44.0086643,232.715314 42.4249054,231.820146 C38.0179242,229.065783 34.1618157,225.760547 29.897235,222.830731 C29.1868847,222.36607 28.4685468,221.912426 27.7413949,221.470902 C27.014243,221.029377 26.2785526,220.599972 25.5329464,220.183788 C24.6540291,219.69296 23.7753872,219.164949 23.006369,218.522631 C21.451531,217.223398 21.7189796,216.041776 23.6657636,215.320408 C23.9224702,215.225383 24.1962539,215.174703 24.4642535,215.111077 C30.537349,213.66724 36.6098937,212.243785 42.8573405,211.710265 C44.7685931,211.546931 46.7016053,211.227149 48.5384901,210.686743 C52.1133782,209.635127 55.7339887,209.394671 59.4292425,209.416431 C62.359885,209.433508 65.2965871,208.985373 68.2225472,209.059465 C76.561382,209.270725 84.8982887,209.598494 93.2313393,209.978045 C95.9394292,210.101441 98.5243992,209.925713 101.023708,208.767503 C105.31418,206.779128 109.773494,205.526168 114.574074,205.554538 C118.602055,205.578501 122.631688,205.368894 126.660495,205.253211 C127.577147,205.227044 128.52575,205.300586 129.403566,205.09208 C133.37701,204.147885 137.254327,204.682507 141.102448,205.728063 C145.02053,206.792349 148.901428,207.574313 153.044266,206.830359 C154.737924,206.526553 156.710048,207.008016 158.394616,207.594695 C161.104634,208.53834 163.727339,208.662286 166.505665,208.067344 C168.281679,207.686966 170.129305,207.529692 171.949664,207.488377 C178.295166,207.344599 184.585856,206.899769 190.721201,205.087949 C193.447469,204.282849 196.229927,203.668626 198.984841,202.959652 C201.547225,202.300258 204.084269,202.353142 206.567879,203.285769 C210.213279,204.654688 213.871624,204.686914 217.668789,203.871898 C219.697928,203.436433 221.857349,203.560654 223.959479,203.522369 C226.941077,203.468383 227.727724,202.767949 227.878112,199.841162 C228.067888,196.152794 228.319085,195.788117 232.04629,194.850256 C233.891162,194.38587 235.471616,193.582423 236.73697,192.157866 C238.287677,190.4116 240.127041,189.161394 242.369368,188.361803 C245.244097,187.336629 246.372009,185.28931 245.81728,182.301653 C245.552585,180.876545 244.952134,179.504321 244.41944,178.140911 C243.635824,176.135735 243.822845,174.312071 245.455081,172.852258 C247.499369,171.023637 249.628768,169.28949 251.743568,167.54102 C252.234946,167.134476 252.929597,166.935611 253.336416,166.47095 C258.56888,160.498664 266.069011,157.186817 271.231514,151.080945 C273.029012,148.955127 275.519782,147.339418 277.891289,145.793118 C281.42982,143.486064 284.230732,140.52953 286.525116,137.04774 C287.53459,135.516038 288.525059,133.956793 289.35247,132.32318 C290.825779,129.414022 292.720781,126.86596 295.239095,124.7922 C296.841308,123.472585 297.37593,121.708966 297.630158,119.715633 C298.22152,115.083345 298.806822,110.441141 299.690146,105.860084 C300.023149,104.133099 300.870666,102.307782 302.005189,100.969162 C305.501302,96.8436762 309.11723,92.7994447 312.935879,88.9725324 C316.947885,84.9519883 321.222932,81.1911807 325.43518,77.3744595 C327.101569,75.864793 328.526402,74.2311802 329.197364,72.051928 C330.034966,69.3314434 331.718984,67.4323099 334.400081,66.3928132 C336.718153,65.493789 338.247927,63.6830706 339.719583,61.7574953 C340.764588,60.3902294 341.85146,58.8420018 343.288962,58.0258839 C348.535198,55.0478664 352.792893,50.8353432 357.460437,47.1406403 C359.325692,45.6640262 361.251267,44.6033209 363.718075,44.7680318 C365.875292,44.9123604 367.668382,44.05355 369.119932,42.4995382 C370.446984,41.0788377 372.040383,40.3373631 373.989095,40.2996283 C377.439211,40.2326973 379.94155,38.6671172 381.383183,35.4995994 C382.597307,32.8322741 384.696682,31.9828284 387.473631,32.4830208 C391.499684,33.2085201 394.885898,32.1334921 397.647974,29.0348334 C400.057766,26.3311504 403.068561,25.5384447 406.63794,26.2441126 C408.318102,26.5760133 410.104306,26.344096 411.839831,26.4278286 C414.576566,26.5597626 417.319912,26.655339 420.043977,26.9310508 C422.252425,27.1544296 423.995662,28.3525776 425.300679,30.1385068 C427.106991,32.6102724 429.288722,34.6523573 431.807862,36.4090902 C433.058619,37.2811216 434.031185,38.5665829 435.079771,39.71047 C437.180523,42.0021002 439.261169,44.313011 441.324738,46.6385199 C444.306337,49.9982922 447.302808,53.3467716 450.207285,56.7726486 C450.900833,57.5906945 451.292228,58.678668 451.761021,59.671616 C454.087081,64.5997227 456.693259,69.3366767 460.997503,72.8669441 C462.846507,74.3834965 463.433737,76.2404882 462.825849,78.5042993 C461.296626,84.1981191 463.600376,89.0017286 469.480115,91.6759399 C472.556463,93.0751564 474.080728,95.1838969 473.52655,98.6108757 C472.893047,102.528131 474.587255,105.347222 477.700237,107.527576 C479.202742,108.580018 480.627574,109.743461 482.122918,110.807196 C483.93887,112.098442 485.051082,113.822673 485.456799,115.998069 C486.463519,121.397723 486.850507,126.743942 484.274902,131.892673 C483.216676,134.0083 483.164618,136.317282 483.293798,138.632325 C483.384692,140.26098 483.946306,141.688015 485.141976,142.806838 C486.41394,143.996723 487.667176,145.223791 489.051243,146.273204 C491.907518,148.438684 493.359067,151.167432 493.990643,154.783085 C495.037301,160.77713 497.910928,165.798059 503.779375,168.528459 C505.110283,169.14764 506.426042,169.80731 507.70627,170.523995 C510.617908,172.153201 512.714529,174.504601 513.851255,177.67267 C514.037174,178.190765 514.308754,178.683521 514.448951,179.212083 C515.609089,183.581054 518.178084,186.897308 521.842489,189.489439 C524.333535,191.25113 525.709064,193.869152 526.719364,196.673645 C527.122879,197.793569 527.472407,198.945719 527.707905,200.11109 C528.694794,204.992648 531.498735,208.549082 536.019196,210.379356 C541.70255,212.680351 544.071302,216.657927 543.508035,222.648116 C543.225162,225.656432 543.120771,228.681274 542.935403,231.698679 C542.884722,232.522784 542.783637,233.347165 542.790523,234.17072 C542.817516,237.409025 544.871995,239.409243 548.062374,238.932187 C549.626853,238.698067 551.376149,238.083293 552.537113,237.06528 C556.283322,233.780151 560.206637,233.049143 564.713602,235.241341 C565.686994,235.714816 566.809948,235.938745 567.890209,236.123563 C571.360156,236.717955 573.913451,238.672176 576.012826,241.372553 C578.280494,244.289424 580.187339,247.340432 581.201221,250.989964 C581.72152,252.862655 583.069781,254.517201 584.109277,256.230691 C585.434677,258.416002 586.879065,260.530527 588.175819,262.73209 C589.758201,265.418971 591.180279,268.200602 592.780288,270.876466 C595.454775,275.349828 596.822592,279.979637 595.918334,285.314838 C595.200823,289.547193 594.993144,293.865759 595.559165,298.207187 C596.036497,301.868837 594.45081,303.595823 590.780345,304.270366 C586.6331,305.032499 582.494394,305.846413 578.368358,306.716516 C575.2226,307.379767 573.416288,309.792865 573.988645,313.299996 C574.469832,316.248817 575.62694,319.089392 576.5166,321.967977 C576.649084,322.39628 576.915431,322.801722 577.190868,323.163921 C578.904632,325.417266 579.386371,327.825957 578.829714,330.671489 C578.115783,334.320194 579.186679,336.090974 582.461066,337.842199 C582.946661,338.101935 583.437764,338.352307 583.935477,338.58808 C586.354634,339.732793 587.621917,341.704918 587.459134,344.311371 C587.312051,346.667178 587.061128,349.103413 586.302301,351.314065 C585.088453,354.848739 584.836154,358.277646 585.927432,361.838762 C586.194881,362.711069 586.339761,363.629925 586.455168,364.538314 C586.903028,368.063072 588.672706,370.761522 591.704434,372.516602 C592.844465,373.176548 594.357988,373.876707 595.538508,373.662417 C600.428053,372.774411 603.748714,375.481123 607.135479,378.191968 C607.708386,378.650294 608.239427,379.162054 608.818946,379.611291 C610.949446,381.261981 613.295061,381.928812 616.033174,381.564961 C621.350472,380.858191 622.221953,381.466079 623.61511,386.663287 C624.457945,389.808219 625.612574,392.769435 627.765109,395.26296 C629.039277,396.739299 629.600341,398.446729 629.325455,400.365969 C628.786151,404.127603 630.143501,407.166492 632.640056,409.888078 C634.994761,412.455145 637.117274,415.240908 639.538359,417.740217 C642.075403,420.359341 645.079036,420.682703 648.346262,419.043582 C649.724545,418.351961 651.129546,417.186315 652.676396,418.316981 C654.37694,419.560025 655.968411,421.011574 656.272218,423.314497 C656.320143,423.676972 656.383769,424.062858 656.312156,424.41156 C655.301855,429.331955 658.502701,432.519304 661.148267,435.851533 C662.553818,437.621762 664.678259,438.618566 666.952812,438.645008 C673.494425,438.721304 679.507475,437.096505 684.384075,432.45375 C686.951142,430.009528 688.428031,426.987441 688.396632,423.398781 C688.36716,420.018076 689.559248,417.269496 691.638793,414.586471 C693.348701,412.380226 694.428687,409.658915 695.623255,407.08937 C696.468844,405.270388 695.885195,403.583065 694.244145,402.504732 C692.801685,401.556956 691.22371,400.775267 689.625904,400.112292 C684.883166,398.143473 680.087819,396.301355 675.339573,394.346033 C672.697587,393.258335 671.736315,391.598831 671.876236,388.719419 C672.109806,383.915259 674.29622,380.139578 677.999737,377.181943 C678.422256,376.844258 678.924101,376.550367 679.437239,376.390614 C681.833259,375.645283 683.99268,374.515168 685.947176,372.914883 C687.518816,371.62832 689.351294,371.751991 691.176335,372.411661 C696.523931,374.344673 701.858031,376.316246 707.227938,378.185082 C708.95272,378.785258 710.753247,379.221824 712.553224,379.539678 C715.242309,380.01453 717.881815,379.719813 720.292985,378.336572 C723.077095,376.739041 725.918772,375.213675 728.558002,373.3991 C731.839551,371.143277 735.244495,371.100859 738.80506,372.280553 C740.841085,372.955372 741.83541,374.376624 741.132772,376.307157 C739.888902,379.726699 738.764295,383.26275 736.266914,386.082943 C734.69858,387.854274 732.709654,388.975575 730.508092,389.717325 C726.020683,391.229471 724.850354,393.325541 724.924446,398.600422 C724.947583,400.245879 725.14755,401.904006 725.429872,403.527978 C726.229188,408.124735 724.847875,412.286578 722.775768,416.226144 C722.140336,417.433656 720.81108,418.391073 719.607424,419.163947 C715.468442,421.821082 714.059585,424.57572 715.067131,429.382911 C716.274644,435.144488 717.929741,440.765041 721.050159,445.865847 C724.102269,450.8551 728.188642,454.252332 733.941681,455.905776 C738.680563,457.267809 743.247573,459.257561 747.826151,461.127774 C749.147694,461.667629 750.366224,462.626698 751.422523,463.617167 C754.656421,466.649446 757.337518,470.124075 759.434965,474.053725 C760.512472,476.072673 761.59356,478.127979 762.971843,479.939524 C765.065159,482.691959 765.41276,485.606902 764.440745,488.779928 C763.768405,490.973778 763.042355,493.153581 762.263696,495.311625 C760.690404,499.672333 760.540842,504.128342 761.434633,508.614649 C762.958622,516.263791 765.806634,523.338373 770.381356,529.743369 C773.257187,533.769422 775.896968,537.988831 778.343118,542.291422 C782.258997,549.179258 787.891945,553.805211 795.40695,556.203711 C801.806162,558.246347 807.455912,561.554337 812.328656,566.191858 C814.292241,568.060418 816.527683,569.443109 819.269927,569.888214 C821.897038,570.314589 823.815177,571.7576 825.049407,574.107898 C826.580558,577.024218 828.927551,578.367246 832.260881,578.042506 C833.52899,577.919111 834.843647,577.952989 836.103493,578.140562 C838.370059,578.478522 839.790759,579.941915 839.831248,582.228863 C839.928753,587.738967 838.333426,592.50374 833.549372,595.836795 C831.223863,597.457187 829.073532,599.327124 826.82487,601.059618 C822.828564,604.138721 818.85209,607.245918 814.791607,610.238809 C813.626236,611.09762 812.254288,611.756463 810.88234,612.236274 C808.443902,613.0893 806.499872,614.570872 804.970099,616.564205 C803.204552,618.864373 800.99693,620.614496 798.624046,622.206793 C795.392076,624.375579 792.543514,626.848446 790.677708,630.417275 C789.167766,633.3055 787.597779,633.70323 784.475157,632.690175 C784.039142,632.548601 783.616622,632.351939 783.172068,632.25113 C781.917731,631.966328 780.800837,632.189707 779.944781,633.238018 C779.086521,634.289358 779.079084,635.474561 779.636843,636.600269 C780.079194,637.492683 780.756491,638.269138 781.334632,639.093243 C783.297942,641.89085 782.806289,644.270345 779.577073,645.43241 C775.703612,646.826118 771.677284,647.812456 767.683457,648.843414 C766.755237,649.083044 765.658449,648.930727 764.693045,648.716162 C761.523599,648.012973 760.054422,645.852726 760.584361,642.634253 C760.775514,641.473289 761.233014,640.342623 761.670131,639.238398 C762.876818,636.191522 763.307876,633.055679 763.059983,629.789004 C762.956694,628.427798 763.052546,627.043455 763.153356,625.67674 C763.240945,624.485478 762.962754,623.49253 761.999278,622.752157 C758.87941,620.354208 755.737508,617.984905 752.638574,615.560239 C751.301331,614.513857 749.853087,614.212805 748.241509,614.605301 C745.659018,615.234673 743.066611,615.831268 740.506981,616.543547 C734.079399,618.331955 727.867484,621.030955 721.033357,621.076953 C720.670057,621.079432 720.286925,621.1224 719.947312,621.243592 C714.352098,623.238853 708.532955,624.664787 703.313712,627.621045 C701.521448,628.636028 699.686491,629.128508 697.81077,628.190096 C694.552909,626.560064 691.617584,627.424383 688.616154,628.916422 C685.993725,630.219511 683.316484,631.444101 680.575617,632.468449 C677.469797,633.629138 674.807705,635.354195 672.852383,637.999761 C669.957547,641.916466 666.377425,644.986479 662.096594,647.262134 C659.87823,648.441552 657.920979,649.902191 656.459514,651.993304 C655.006588,654.071746 653.108005,654.930832 650.506233,654.290443 C647.381959,653.521424 644.249422,654.075327 641.269201,655.01484 C636.525086,656.510735 631.888115,656.129256 627.154742,655.016768 C621.207796,653.619204 617.481693,649.978212 615.790239,644.22958 C615.171884,642.128276 615.002766,639.898619 614.489629,637.760682 C614.064906,635.990729 613.614017,634.187722 612.858219,632.54502 C611.538328,629.6758 609.372022,627.533181 606.220204,626.788126 C601.492064,625.670405 597.808929,622.759594 594.114502,619.904972 C593.098417,619.119978 592.360248,617.788244 591.859229,616.558696 C590.348185,612.852425 589.915475,612.452767 586.013644,612.608663 C584.751319,612.659068 583.758647,612.272356 582.711989,611.557598 C581.062401,610.431339 579.250305,609.541129 577.4955,608.571593 C575.817818,607.644475 574.016189,606.896665 572.468236,605.791064 C570.65559,604.496788 568.871038,604.214191 566.767531,604.821803 C562.682259,606.001772 557.961556,603.668 556.538927,599.66894 C556.17122,598.634677 556.375869,597.339575 556.536724,596.195137 C556.633402,595.507373 557.060879,594.80804 557.498547,594.235683 C559.55826,591.543293 559.834798,588.549025 559.215618,585.341844 C559.007663,584.265715 559.000226,583.15185 558.87931,582.057817 C558.559528,579.161329 557.545647,578.338325 554.721874,578.696117 C553.903277,578.799681 553.097075,579.017275 552.277101,579.08944 C548.413556,579.429328 545.487871,577.727407 543.840211,574.204852 C543.568631,573.623406 543.371418,573.007806 543.111682,572.4203 C541.686299,569.198246 539.523022,568.28848 536.201535,569.624897 C534.758249,570.205792 533.412743,571.025215 531.992868,571.670562 C528.166231,573.409667 526.170144,572.630182 524.58914,568.813737 C524.308195,568.135613 524.151196,567.396892 523.806625,566.756227 C521.825136,563.072542 521.261043,559.350846 523.157146,555.424777 C523.63613,554.432655 523.747957,553.244698 522.788888,552.349255 C521.765091,551.393491 520.482935,551.476948 519.455007,552.117062 C517.685879,553.219358 515.825307,554.342863 514.441239,555.857763 C511.932841,558.603863 509.174621,560.902104 505.939071,562.749455 C500.310805,565.962971 495.698624,570.477648 491.14153,575.000037 C489.019568,577.106023 490.005906,579.727075 492.987228,580.200274 C494.975328,580.515649 497.012455,580.510691 499.019284,580.725807 C500.104228,580.842041 501.224152,580.978933 502.235829,581.35573 C503.973557,582.003005 504.87203,583.518456 504.727426,585.226161 C504.578415,586.983445 503.566738,588.094004 501.940562,588.612651 C501.163831,588.860268 500.328157,588.977053 499.511213,589.03214 C498.322155,589.111741 497.125659,589.07924 495.932469,589.099898 C486.115367,589.269566 476.298266,589.440612 466.48144,589.611107 C466.481715,589.628735 466.481991,589.646363 466.482266,589.663991"></path>
    <clipPath id="oahu-clip">
      <use xlink:href="#oahu"/>
    </clipPath>
  </defs>
  <g class="oahu__base">
    <use xlink:href="#oahu"/>
  </g>
  <g class="oahu__clips" clip-path="url(#oahu-clip)">
    <path data-shore="east" class="oahu__clips__clip" d="M434.882813,32.4648438 C434.882813,32.4648438 386.660157,120.835938 469.511718,184.761719 C552.363278,248.6875 524.656245,426.800781 651.398433,457.835938 C778.14062,488.871094 758.472664,649.871094 838.621094,575.574219 C918.769523,501.277344 434.882813,32.4648438 434.882813,32.4648438 Z"></path>
    <path data-shore="south" class="oahu__clips__clip" d="M235.476562,601.277344 C235.476562,601.277344 236.886719,533.609375 330.773438,554.351562 C424.660156,575.09375 369.906302,506.228004 523.734375,524.980468 C677.562448,543.732933 652.101562,498.980469 800.175781,611.574219 C813.140625,765 235.476562,601.277344 235.476562,601.277344 Z"></path>
    <path data-shore="west" class="oahu__clips__clip" d="M8.70703125,216.945313 C8.70703125,216.945313 71.1523438,198.652344 128.1875,271.019531 C185.222656,343.386719 154.820312,403.644534 202.003906,452.3125 C249.1875,500.980466 325.996094,631.011722 264,638.496094 C202.003906,645.980466 8.70703125,216.945313 8.70703125,216.945313 Z"></path>
    <path data-shore="north" class="oahu__clips__clip" d="M0.2265625,212.277344 C0.2265625,212.277344 142.414062,288.574219 259.707031,230.054687 C377,171.535156 327.59375,164.500005 345.113281,126.146711 C362.632813,87.7934161 491.589844,51.3515601 412.851562,5.68359192 C334.113281,-39.9843762 0.2265625,212.277344 0.2265625,212.277344 Z"></path>
  </g>
</svg>