<svg class="board--sb" viewBox="0 0 63 200">
  <path class="board--sb__base" transform="translate(1, 1)" d="M19.2232859,195.895378 C19.6382859,196.949378 20.6652859,197.647378 21.7982859,197.647378 L37.6842859,197.647378 C38.8192859,197.647378 39.8452859,196.947378 40.2592859,195.891378 C84.7572859,82.408378 38.8752859,11.513378 30.9902859,0.574378012 C30.4402859,-0.189621988 29.3142859,-0.191621988 28.7602859,0.569378012 C20.8122859,11.491378 -25.5307141,82.392378 19.2232859,195.895378 Z"></path>
  <path class="board--sb__detail" transform="translate(1, 1)" d="M2.36696055,70 C0.891684059,79.5558602 5.30054879e-06,90.0104955 2.36361018e-11,101.322564 L0,101.322613 C-1.93863368e-06,109.444798 0.459688784,118.009024 1.49311021,126.999986 L57.913578,127 C60.387519,105.486957 59.6005511,86.4170833 57.1022005,70 L2.36696055,70 Z"></path>
  <rect class="board--sb__stringer" x="29" y="0" width="2" height="198" transform="translate(1, 1)"></rect>
</svg>