<svg class="board--sup" viewBox="0 0 103 293">
  <path class="board--sup__base" d="M44.131,290.5 L33.813,290.5 C32.12,290.5 30.537,289.734 29.533,288.437 C22.893,279.857 0,241.803 0,124.932 C0,0.672000271 38.288,2.7063765e-07 44.131,2.7063765e-07 C49.974,2.7063765e-07 88.262,-0.101999729 88.262,124.932 C88.262,234.61 65.162,278.019 58.64,288.09 C57.671,289.586 55.964,290.5 54.116,290.5 L44.131,290.5 Z" transform="translate(1, 1)"></path>
  <path class="board--sup__detail" d="M43.8555641,148.345508 C44.0582335,149.32207 44.4348784,150.298242 44.4363886,151.275586 C44.4511886,159.599023 44.3796049,167.922852 44.3786988,176.24668 C44.3783967,178.164258 43.8159967,179.182617 42.3148539,179.656836 C31.2939886,183.138867 20.2891314,186.705273 9.27793143,190.238477 C7.60734367,190.774414 7.32070694,190.500195 7.29654367,188.270898 C7.27207837,185.995117 7.32251918,183.718164 7.28838857,181.442773 C7.27721306,180.694727 7.1050498,179.950586 7.00658449,179.204883 L7.00658449,163.579883 C6.87429061,159.949805 8.74966204,159.325586 10.9760049,158.831055 C13.433711,158.284961 15.8394661,157.339648 18.2624376,156.541211 C22.957058,154.994727 27.6622498,153.49707 32.3354253,151.847852 C35.2951233,150.80332 38.2049845,149.520898 41.1371967,148.345508 L43.8555641,148.345508 Z M80.7045437,176.470508 C80.6084947,177.293555 80.455058,178.113477 80.4266661,178.94043 C80.2952784,182.768945 80.1956049,186.599023 80.0904947,190.428711 C80.0276702,192.716211 79.4184539,193.317773 77.6871559,192.644336 C74.0511886,191.230273 70.4158253,189.811914 66.7997927,188.31543 C60.1249927,185.552539 53.4731478,182.69668 46.7904947,179.966211 C45.446111,179.416992 44.8855233,178.645117 44.9196539,176.689258 C45.06856,168.108398 45.0706743,159.523242 45.1347069,150.940039 C45.1510171,148.751367 45.4859804,148.409961 47.1514335,149.113477 C52.5102416,151.375977 57.8370335,153.768164 63.2118498,155.963867 C68.4383641,158.098633 73.7119967,160.040039 78.9560294,162.10332 C79.56736,162.343945 80.1231151,162.82168 80.7045437,163.189258 L80.7045437,176.470508 Z M34.0414424,272.966211 C32.5324465,272.966211 31.0219404,272.90293 29.5150588,272.977539 C23.8418261,273.258008 22.2041608,270.929883 20.7501363,265.143555 C17.6518016,252.811914 13.7307078,240.791992 11.8166751,227.974414 C10.9452873,222.138086 9.71779347,216.383398 8.98081388,210.522461 C8.28944245,205.025586 8.03421796,199.437305 7.58176082,193.890039 C7.47332816,192.55918 7.98619347,191.770117 8.91557306,191.443945 C11.519769,190.530664 14.1290996,189.640039 16.7456792,188.787695 C24.7422098,186.181836 32.7426669,183.59707 40.74252,181.00918 C41.1282261,180.88457 41.5245037,180.815039 41.9147404,180.711914 C43.532169,180.28457 44.1658506,180.882617 44.1459159,183.044727 C44.0939649,188.635352 43.9921771,194.225195 43.8976384,199.814648 C43.768969,207.417773 43.628822,215.020508 43.4932057,222.623633 C43.2114016,238.413867 42.9311078,254.204492 42.6456792,269.995117 C42.5970506,272.688477 42.3835078,272.942383 40.2290506,272.952148 C38.1667159,272.961523 36.1040792,272.954102 34.0414424,272.954102 L34.0414424,272.966211 Z M43.4215012,255.963281 C43.5737298,247.649219 43.72324,239.334766 43.878489,231.020703 C44.0739094,220.559375 44.2611747,210.097656 44.4768318,199.637109 C44.5916073,194.052734 44.7574278,188.470313 44.9024073,182.886719 C44.9579829,180.748828 45.7873869,180.136328 47.6102033,180.932422 C51.3567176,182.569141 55.0914522,184.250781 58.841289,185.873437 C64.9180482,188.503125 71.0093053,191.075781 77.0812318,193.724219 C79.4407747,194.753125 79.5069216,195.030469 79.2381053,198.237891 C78.4476645,207.663672 77.0464971,216.928125 74.7527992,225.938672 C71.5037461,238.702344 68.3715829,251.523828 64.8244155,264.149219 C62.9949543,270.661328 61.3563829,272.937891 55.185991,272.955469 C51.7656808,272.965234 48.3450686,272.917578 44.9250604,272.958984 C43.8247257,272.972266 43.2239665,272.576563 43.2354441,270.984766 C43.2713869,265.977734 43.2487339,260.970312 43.2487339,255.962891 C43.3064237,255.963281 43.3638114,255.963281 43.4215012,255.963281 Z" transform="translate(1, 1)"></path>
  <path class="board--sup__paddle" transform="translate(70.027819, 158.202925) rotate(172.000000) translate(-70.027819, -158.202925)" d="M84.8307226,38.1264194 C84.7437247,44.7563252 83.4224442,51.1470032 81.0693185,57.3354023 C79.4362258,61.630646 77.4894388,65.7705796 75.1283661,69.7236818 C74.1172247,71.4168545 73.1773965,73.8423229 72.6915885,75.747377 C72.6388879,77.5401236 72.2716564,265.520079 72.2716564,277.046012 C72.2733294,278.710586 72.3952519,280.352197 71.9399769,282.005916 C71.5982592,283.246727 72.1166914,284.050624 73.247664,284.659757 C73.5847808,284.84137 73.941765,284.986868 74.2753266,285.174326 C75.8166114,286.040222 75.9107197,287.598959 74.4509955,288.588435 C73.5193233,289.220113 72.5037902,289.679573 71.3289003,289.615277 C69.7135837,289.526976 68.0313455,289.917548 66.5352327,288.971909 C66.1253388,288.712642 65.7089618,288.446903 65.3542781,288.120626 C64.2337619,287.090235 64.3577758,286.068403 65.6962049,285.287051 C66.1142549,285.043022 66.5820777,284.883746 67.0285693,284.689191 C68.2607606,284.152285 68.8032427,283.494096 68.5918127,282.185024 C68.3078148,280.425677 68.266198,278.731878 68.5144348,276.946647 C68.6562246,275.115907 68.4968679,79.2474913 68.1503402,75.7283808 C67.9462298,73.6531952 66.8056372,71.7999111 65.7321752,70.0079996 C62.5270557,64.6585674 59.946397,59.04277 57.9301789,53.1301299 C56.8523252,49.9698609 56.101341,46.7676332 55.5919014,43.5029891 C55.063431,40.1160174 55.0142855,36.6906357 55.9300639,33.3510503 C56.7964876,30.1899463 59.1209626,28.3721497 62.1698624,27.6490391 C67.6078582,26.3595892 73.0897712,26.5497606 78.4807128,27.9529793 C82.4673495,28.9906765 84.6301674,32.1094042 84.8261218,36.1439189 C84.8583277,36.803152 84.8307226,37.4655163 84.8307226,38.1264194" transform="translate(1, 1)"></path>
</svg>