<svg class="wind-compass" viewBox="0 0 292 292">
    <g fill-rule="evenodd">
      <path class="wind-compass__base" d="M146,241 C198.467051,241 241,198.467051 241,146 C241,93.5329488 198.467051,51 146,51 C93.5329488,51 51,93.5329488 51,146 C51,198.467051 93.5329488,241 146,241 Z M146,233 C194.048773,233 233,194.048773 233,146 C233,97.9512268 194.048773,59 146,59 C97.9512268,59 59,97.9512268 59,146 C59,194.048773 97.9512268,233 146,233 Z"></path>
      <g class="wind-compass__directions" transform="translate(11, 19)">
        <text x="122" y="25" data-direction="north">N</text>
        <text x="2" y="138" data-direction="west">W</text>
        <text x="234" y="138" data-direction="east">E</text>
        <text x="124" y="251" data-direction="south">S</text>
      </g>
      <path class="wind-compass__needle" d="M146.5,179 C164.449254,179 179,164.449254 179,146.5 C179,128.550746 167.217448,126.411458 146.5,86.296875 C125.818758,126.358154 114,128.550746 114,146.5 C114,164.449254 128.550746,179 146.5,179 Z M146.5,158 C152.851275,158 158,152.851275 158,146.5 C158,140.148725 152.851275,135 146.5,135 C140.148725,135 135,140.148725 135,146.5 C135,152.851275 140.148725,158 146.5,158 Z"></path>
    </g>
</svg>