<?xml version="1.0" encoding="UTF-8" standalone="no"?>
<svg width="609px" height="495px" viewBox="0 0 609 495" version="1.1" xmlns="http://www.w3.org/2000/svg" xmlns:xlink="http://www.w3.org/1999/xlink" xmlns:sketch="http://www.bohemiancoding.com/sketch/ns">
    <!-- Generator: Sketch Beta 3.4.3 (15959) - http://www.bohemiancoding.com/sketch -->
    <title>Group</title>
    <desc>Created with Sketch Beta.</desc>
    <defs></defs>
    <g id="Page-1" stroke="none" stroke-width="1" fill="none" fill-rule="evenodd" sketch:type="MSPage">
        <g id="Artboard-1-Copy" sketch:type="MSArtboardGroup" transform="translate(-163.000000, -101.000000)">
            <g id="Group" sketch:type="MSLayerGroup" transform="translate(163.000000, 101.000000)">
                <g id="surf" fill="#FFFFFF" sketch:type="MSShapeGroup">
                    <path d="M89.3409437,262.257359 L89.337507,262.807359 L89.3409437,262.257359 Z M166.211254,210.529859 C165.64593,212.728141 164.534183,214.371266 164.525592,215.471266 L164.520437,216.022984 L163.970577,216.017828 C151.80838,223.635328 139.099761,230.697672 125.284549,238.301422 C121.968211,240.479078 118.651873,242.656734 115.883676,244.837828 C112.019197,246.462047 109.251,248.643141 106.484521,250.824234 C102.065028,252.993297 98.7469718,255.170953 95.4289155,257.348609 C93.7673099,258.988297 91.5541268,260.622828 89.337507,262.807359 C93.2208873,258.433141 98.1971127,255.167516 104.821197,252.463922 C109.809451,247.546578 115.887113,244.287828 121.973366,239.929078 C134.680268,232.866734 145.735873,226.342359 155.131592,220.907672 C158.444493,219.280016 161.207535,217.648922 163.970577,216.017828 L164.525592,215.471266 C165.637338,213.828141 165.654521,211.626422 166.211254,210.529859 L166.211254,210.529859 Z M88.7996761,261.152203 C88.7910845,262.253922 89.3409437,262.257359 89.3409437,262.257359 L88.7876479,262.803922 C88.7910845,262.253922 88.7910845,262.253922 88.7996761,261.152203 L88.7996761,261.152203 Z M88.7876479,262.803922 L89.337507,262.807359 L89.3340704,263.359078 L88.782493,263.353922 L88.7876479,262.803922 Z M88.2326338,263.350484 C88.2326338,263.350484 88.2360704,262.800484 88.7876479,262.803922 L88.2326338,263.350484 Z M87.7824366,249.586734 C93.3102394,246.324547 101.604521,240.879547 106.022296,238.712203 C100.499648,241.422672 96.0767183,244.141734 91.6589437,246.312516 C89.9990563,247.400484 88.8924648,248.493609 87.7824366,249.586734 L87.7824366,249.586734 Z M87.6862113,262.795328 C88.2360704,262.800484 88.2360704,262.800484 88.239507,262.250484 L88.7876479,262.803922 C88.2360704,262.800484 88.2360704,262.800484 87.6862113,262.795328 L87.6862113,262.795328 Z M87.1518169,260.590172 C87.1483803,261.140172 87.1483803,261.140172 87.1397887,262.241891 L86.5847746,262.788453 C86.5882113,262.236734 86.5968028,261.136734 87.1518169,260.590172 L87.1518169,260.590172 Z M74.8418451,213.161266 C74.2799577,214.809547 74.8091972,217.564703 75.3487465,219.219859 C76.4244085,222.531891 77.5052254,225.292203 78.0396197,227.495641 C79.1032535,232.459391 80.1686056,237.419703 80.6823803,242.378297 C80.7064366,239.076578 78.5448028,233.555953 78.0344648,228.047359 C77.5052254,225.292203 76.4244085,222.531891 75.3487465,219.219859 C74.264493,217.011266 74.2799577,214.809547 74.8418451,213.161266 L74.8418451,213.161266 Z M74.3005775,212.057828 L74.2954225,212.607828 L74.3005775,212.057828 Z M74.8418451,213.161266 L74.2954225,212.607828 L74.3005775,212.057828 L74.3126056,210.406109 L74.3005775,212.057828 L74.2954225,212.607828 L74.3005775,212.057828 L74.2954225,212.607828 L74.8418451,213.161266 Z M71.4258451,153.689078 C72.5307183,153.145953 73.6390282,152.052828 74.747338,150.961422 L75.2989155,150.964859 L75.8487746,150.968297 C76.4037887,150.423453 76.4037887,150.423453 76.9536479,150.426891 L77.508662,149.880328 C78.0585211,149.883766 78.0585211,149.883766 78.6083803,149.888922 L77.508662,149.880328 C76.9536479,150.426891 76.4037887,150.423453 75.8522113,150.418297 C75.8487746,150.968297 75.2989155,150.964859 75.2989155,150.964859 L74.747338,150.961422 C74.747338,150.961422 74.1906056,152.057984 73.6390282,152.052828 C71.9808592,153.142516 69.7676761,154.777047 66.4616479,155.302984 C65.9117887,155.299547 69.2178169,154.773609 71.4258451,153.689078 L71.4258451,153.689078 Z M31.6710282,321.832672 C31.121169,321.829234 31.1057042,324.030953 31.0936761,325.682672 C31.0902394,326.234391 31.0902394,326.234391 31.0850845,326.784391 C31.076493,327.884391 30.5231972,328.430953 30.5197606,328.980953 C29.973338,328.425797 29.9767746,327.875797 29.9819296,327.324078 C29.9767746,327.875797 29.973338,328.425797 29.9699014,328.975797 C28.8650282,329.518922 28.8564366,330.618922 28.8478451,331.720641 L27.7429718,332.262047 L27.7343803,333.363766 C27.1810845,333.910328 27.1776479,334.462047 27.1776479,334.462047 C27.1742113,335.012047 26.6226338,335.006891 26.6191972,335.556891 L27.1776479,334.462047 C26.6226338,335.006891 26.0607465,336.653453 26.0607465,336.653453 C26.0607465,336.653453 26.0641831,336.103453 26.069338,335.553453 C26.0641831,336.103453 26.0607465,336.653453 25.5108873,336.650016 C25.5057324,337.201734 25.5022958,337.751734 25.4988592,338.301734 C25.5108873,336.650016 26.0848028,333.351734 26.6552817,330.605172 C27.2137324,329.506891 27.7687465,328.962047 27.7756197,327.860328 L27.7876479,326.208609 C27.7910845,325.658609 27.7996761,324.556891 27.8031127,324.006891 C27.8082676,323.455172 27.8151408,322.355172 27.8202958,321.805172 C27.2704366,321.801734 27.267,322.351734 27.2584085,323.451734 C27.2549718,324.003453 27.7962394,325.106891 27.7876479,326.208609 C26.6879296,326.200016 27.2223239,328.405172 26.096831,331.700016 C26.096831,331.700016 25.5383803,332.798297 25.5349437,333.348297 L25.5263521,334.450016 L25.5229155,335.000016 C25.5177606,335.551734 24.9679014,335.546578 24.9644648,336.096578 C24.9593099,336.646578 24.9524366,337.748297 24.9472817,338.298297 L24.9404085,339.400016 L24.9352535,339.948297 C25.4816761,340.503453 26.0332535,340.506891 26.0280986,341.058609 C29.3753662,335.027516 31.076493,327.884391 31.6710282,321.832672 L31.6710282,321.832672 Z M24.9352535,339.948297 C24.9593099,336.646578 24.9885211,332.793141 26.1140141,329.498297 C26.6673099,328.953453 25.5624366,329.494859 25.5624366,329.494859 C25.5624366,329.494859 26.6673099,328.953453 26.6707465,328.401734 C26.1174507,328.948297 25.5624366,329.494859 25.5538451,330.596578 C25.5624366,329.494859 26.1174507,328.948297 26.1208873,328.396578 C26.1243239,327.846578 26.1329155,326.746578 26.1380704,326.196578 C26.1380704,326.196578 25.5830563,326.744859 25.5796197,327.293141 C25.5796197,327.293141 25.0246056,327.839703 25.0194507,328.391422 C24.4695915,328.386266 24.4747465,327.834547 23.923169,327.831109 L23.9283239,327.281109 C23.9317606,326.731109 24.4867746,326.184547 24.4902113,325.634547 C24.4936479,325.084547 25.0520986,323.986266 25.0572535,323.436266 C25.6157042,322.339703 25.6277324,320.687984 26.1775915,320.691422 C26.7360423,319.594859 27.2910563,319.048297 27.2996479,317.948297 C27.3030845,317.398297 27.3030845,317.398297 27.3065211,316.848297 C27.3099577,316.296578 27.3151127,315.746578 27.8649718,315.751734 C28.9818732,313.556891 30.1022113,310.813766 32.8652535,309.182672 C32.8686901,308.630953 32.8686901,308.630953 32.8721268,308.080953 C32.8893099,305.879234 32.901338,304.229234 32.3669437,302.022359 C30.1503239,304.208609 29.0385775,305.850016 27.3718169,308.041422 L26.8168028,308.587984 L26.8202394,308.037984 C26.263507,309.132828 25.1569155,309.675953 24.0520423,310.217359 C24.0486056,310.769078 23.4987465,310.765641 23.4918732,311.865641 C23.4781268,313.515641 23.4712535,314.617359 22.9128028,315.715641 L22.9042113,316.815641 C22.9007746,317.365641 23.4506338,317.369078 23.4471972,317.920797 C23.4420423,318.470797 23.4420423,318.470797 23.4386056,319.019078 C23.435169,319.570797 22.8801549,320.117359 22.8767183,320.667359 L22.8681268,321.769078 C22.8612535,322.870797 23.4025211,323.974234 23.3990845,324.525953 L23.390493,325.625953 L23.3870563,326.175953 C23.3870563,326.175953 23.3819014,326.727672 23.9283239,327.281109 L23.923169,327.831109 C23.9197324,328.382828 23.9162958,328.932828 23.363,329.477672 C23.3458169,331.681109 23.3423803,332.231109 23.3337887,333.332828 C23.3217606,334.982828 23.313169,336.082828 23.3097324,336.632828 C23.3045775,337.184547 23.3045775,337.184547 23.3011408,337.734547 C23.2977042,338.284547 23.3011408,337.734547 23.3011408,337.734547 L23.2977042,338.284547 C23.8424085,338.841422 24.9404085,339.400016 24.9352535,339.948297 L24.9352535,339.948297 Z M21.144662,331.663922 C21.144662,331.663922 21.1515352,330.563922 21.1601268,329.463922 C21.7151408,328.915641 21.7220141,327.815641 21.727169,327.263922 C21.7220141,327.815641 21.7151408,328.915641 21.1601268,329.463922 C21.1566901,330.013922 21.144662,331.663922 21.144662,331.663922 L21.144662,331.663922 Z M21.1120141,336.067359 C21.1206056,334.967359 21.1240423,334.415641 20.5776197,333.862203 L20.5896479,332.210484 C20.5810563,333.312203 20.5707465,334.963922 21.1120141,336.067359 L21.1120141,336.067359 Z M89.337507,262.807359 C89.3082958,266.662516 89.830662,270.519391 88.7017324,274.364234 C88.1432817,275.460797 88.6982958,274.912516 89.2567465,273.817672 L89.2687746,272.165953 C89.2601831,273.265953 89.2481549,274.917672 88.6776761,277.665953 C89.215507,279.321109 89.2000423,281.522828 89.1880141,283.174547 C89.2120704,279.871109 88.6776761,277.665953 89.2533099,274.367672 C90.3770845,271.072828 89.8461268,268.315953 89.3134507,266.110797 C90.3805211,270.522828 89.2395634,276.019391 89.2000423,281.522828 C88.6003521,288.122828 86.897507,295.267672 85.1791972,304.612516 C85.7445211,302.414234 86.3270282,298.015953 87.4559577,294.169391 C89.143338,289.227984 89.7292817,284.277984 90.3049155,280.981422 C90.3117887,279.879703 90.3049155,280.981422 90.8341549,283.736578 C90.8255634,284.838297 90.2602394,287.034859 90.2516479,288.134859 C89.1072535,294.181422 87.4233099,298.572828 87.3872254,303.527984 C86.8201831,305.724547 86.8047183,307.926266 86.2376761,310.124547 L85.122493,312.317672 L84.5726338,312.314234 L84.5674789,312.864234 L84.5588873,313.964234 C84.0021549,315.062516 83.4419859,316.159078 83.4385493,316.710797 C81.2099014,320.545328 80.0809718,324.390172 78.4004648,328.231578 C75.6185211,332.614391 73.383,337.000641 71.7042113,340.843766 C68.9205493,345.224859 64.4907465,349.045641 61.1572254,353.425016 C60.0489155,354.518141 58.3907465,355.606109 57.8357324,356.152672 C57.8322958,356.702672 57.2807183,356.699234 57.2772817,357.250953 L56.1724085,357.792359 L55.6191127,358.337203 L54.5125211,358.882047 C53.4007746,360.525172 49.5328592,362.695953 47.3231127,363.782203 C45.1185211,364.316734 42.9122113,364.849547 40.7076197,365.385797 C39.0528873,365.922047 35.197,366.444547 32.9941268,366.427359 C28.0436761,366.392984 23.6533944,364.708609 19.8129718,363.029391 L19.2665493,362.475953 C17.0825775,360.258766 13.797169,358.032984 10.5117606,355.807203 C8.32950704,353.036578 5.60426761,349.714234 4.52688732,346.405641 C2.90308451,342.540172 0.18471831,338.116109 0.212211268,334.264391 C-0.320464789,332.055797 0.250014085,329.309234 0.815338028,327.110953 C0.827366197,325.459234 0.844549296,323.257516 1.41502817,320.510953 C1.9958169,316.112672 2.5714507,312.814391 5.35167606,308.981578 C7.03046479,305.138453 8.15080282,302.397047 10.3760141,299.109078 C13.1613944,294.726266 17.041338,290.902047 20.3662676,287.622672 L12.2850563,263.895328 C12.2988028,262.243609 11.750662,261.688453 10.6664085,259.478141 L10.6715634,258.928141 C10.7317042,250.672984 6.93939437,242.388609 6.45483099,233.576578 C7.03733803,229.178297 6.52012676,224.771422 7.10607042,219.821422 C7.12153521,217.619703 7.13871831,215.417984 7.70060563,213.769703 C9.36392958,212.131734 9.37595775,210.480016 9.93440845,209.383453 L9.93784507,208.833453 L9.94128169,208.281734 C10.4928592,208.286891 10.4928592,208.286891 9.94128169,208.281734 C10.4928592,208.286891 10.4928592,208.286891 10.4962958,207.735172 C10.5014507,207.185172 11.0547465,206.638609 10.5083239,206.085172 C11.628662,203.340328 12.1922676,201.693766 13.3126056,198.948922 C13.8676197,198.402359 13.8710563,197.852359 13.8710563,197.852359 C14.4243521,197.305797 14.429507,196.755797 13.8830845,196.200641 L14.4380986,195.654078 L14.9913944,195.107516 L16.1031408,193.466109 C18.8850845,189.633297 21.1051408,186.897047 24.4352254,183.067672 C28.3357887,176.491734 35.5286338,171.039859 42.1699014,166.134547 C47.7148873,160.120641 54.9025775,155.768766 62.0851127,151.968609 C65.4014507,149.790953 69.8157887,148.171891 73.1286901,146.544234 L73.6802676,146.549391 L74.2335634,146.002828 L75.3384366,145.459703 C76.4433099,144.918297 77.5447465,144.926891 78.0946056,144.930328 C79.7527746,143.842359 81.9590845,143.306109 83.0622394,142.764703 C87.4782958,141.145641 90.7911972,139.517984 94.6419296,139.547203 C97.9531127,138.471266 102.362296,137.402203 106.218183,136.879703 C108.419338,136.895172 110.070634,136.907203 111.72193,136.920953 C114.472944,136.939859 116.674099,136.957047 118.871817,137.522516 C121.072972,137.539703 122.715676,138.651734 124.908239,139.768922 C126.002803,140.327516 127.097366,141.437828 127.635197,143.091266 C129.274465,144.755016 130.370746,145.313609 131.458437,146.972203 C131.446408,148.623922 130.884521,150.272203 131.425789,151.377359 C131.410324,153.579078 130.848437,155.225641 129.743563,155.767047 C129.740127,156.318766 129.740127,156.318766 130.286549,156.872203 L129.731535,157.418766 L129.72638,157.970484 L129.722944,158.520484 L129.71607,159.622203 C129.707479,160.722203 128.044155,162.360172 127.485704,163.456734 C126.368803,165.649859 125.801761,167.848141 124.686577,170.041266 C123.573113,171.686109 121.353056,174.420641 118.584859,176.603453 C116.375113,177.687984 114.16193,179.322516 110.306042,179.845016 C109.751028,180.391578 109.201169,180.388141 108.65131,180.382984 C108.099732,180.379547 107.551592,180.374391 107.551592,180.374391 C107.546437,180.926109 107.546437,180.926109 106.996577,180.920953 L106.446718,180.917516 C105.348718,180.358922 103.699141,180.346891 101.501423,179.779703 C100.405141,179.221109 98.7624366,178.109078 96.5698732,176.991891 C95.4770282,175.883297 95.4890563,174.231578 94.9512254,172.576422 C94.9477887,173.126422 94.3927746,173.672984 94.3927746,173.672984 C91.0712817,176.400641 88.8580986,178.036891 87.191338,180.224859 C82.1979296,185.693922 79.410831,190.626734 76.0635634,196.657828 C76.0515352,198.307828 76.0309155,201.061266 76.0120141,203.812984 C75.4415352,206.561266 76.5257887,208.769859 77.0601831,210.976734 L77.0515915,212.078453 L77.0601831,210.976734 C75.9398451,213.719859 76.4811127,214.825016 77.5688028,216.485328 C77.5653662,217.033609 78.1117887,217.588766 78.1117887,217.588766 C78.1066338,218.140484 78.1031972,218.690484 78.0997606,219.240484 C78.0963239,219.790484 78.091169,220.342203 78.0791408,221.992203 C79.7063803,225.307672 81.3319014,228.621422 81.8542676,232.478297 C83.4660423,237.995484 84.5262394,243.507516 86.1448873,247.922984 C87.2531972,246.829859 88.9079296,246.291891 90.0128028,245.750484 C100.508239,240.320953 107.692493,235.970797 117.631197,231.641266 C122.048972,229.470484 123.153845,228.929078 126.466746,227.301422 C129.226352,226.220328 125.913451,227.847984 126.46331,227.851422 C131.436099,225.137516 137.510324,222.428766 138.618634,221.335641 C135.853873,222.966734 135.853873,222.966734 133.090831,224.597828 C131.432662,225.687516 137.510324,222.428766 138.060183,222.433922 C135.850437,223.516734 134.190549,224.606422 131.432662,225.687516 C136.405451,222.971891 136.95531,222.975328 144.13269,219.725172 C144.684268,219.728609 143.582831,219.721734 141.928099,220.259703 C142.483113,219.713141 144.687704,219.178609 147.44731,218.097516 C144.684268,219.728609 147.997169,218.102672 149.657056,217.014703 C149.657056,217.014703 148.547028,218.106109 146.892296,218.644078 C146.892296,218.644078 147.44731,218.097516 147.997169,218.102672 C148.000606,217.550953 148.550465,217.556109 149.657056,217.014703 C149.657056,217.014703 150.210352,216.466422 150.76193,216.471578 L151.315225,215.925016 C154.074831,214.843922 149.102042,217.559547 146.892296,218.644078 C148.550465,217.556109 151.311789,216.475016 152.414944,215.933609 L152.964803,215.937047 C161.24362,212.695484 165.664831,209.974703 165.664831,209.974703 L165.661394,210.524703 L163.424155,215.462672 C163.424155,215.462672 106.541225,243.119078 85.4970845,261.128141 C86.5332254,269.943609 84.7530563,287.545328 76.8866338,309.505797 C71.2918169,322.124859 64.5921268,335.285328 56.8202113,344.587203 C56.8236479,344.037203 57.378662,343.490641 59.0316761,342.950953 C60.1451408,341.307828 61.2671972,338.562984 63.4820986,336.378453 C64.6075915,333.083609 67.9342394,329.805953 70.1594507,326.519703 C71.2849437,323.224859 72.9620141,319.383453 73.5376479,316.085172 C74.0909437,315.540328 75.2078451,313.347203 75.7783239,310.597203 C77.9949437,308.412672 79.1204366,305.117828 79.6909155,302.369547 C80.8164085,299.076422 81.3903239,295.776422 81.9573662,293.579859 C84.1825775,290.293609 84.1946056,288.641891 84.2066338,286.991891 C84.1980423,288.090172 84.7410282,289.195328 83.0777042,290.835016 C83.0622394,293.036734 83.0502113,294.688453 81.3748592,297.978141 C83.0416197,295.790172 83.0570845,293.588453 84.7324366,290.295328 C84.1980423,288.090172 85.316662,285.898766 85.3286901,284.247047 C85.8854225,283.150484 85.3716479,278.191891 86.4971408,274.897047 C87.629507,270.502203 86.5572817,266.641891 86.5727465,264.440172 C87.1311972,263.341891 87.1363521,262.791891 87.1397887,262.241891 C90.4698732,258.412516 93.7913662,255.686578 98.2142958,252.965797 C103.735225,250.253609 107.611732,246.979391 111.481366,244.806891 C110.92807,245.353453 109.268183,246.441422 107.611732,246.979391 C106.505141,248.072516 104.845254,249.160484 104.841817,249.712203 C107.055,248.077672 110.367901,246.450016 114.235817,244.275797 C117.007451,241.544703 120.318634,240.467047 121.426944,239.375641 C118.662183,241.005016 116.449,242.641266 114.235817,244.275797 C116.449,242.641266 120.873648,239.920484 124.745,237.196266 C129.712634,235.030641 135.238718,231.770172 137.998324,230.689078 C129.712634,235.030641 121.976803,239.379078 113.679085,245.372359 C108.708014,247.539703 104.833225,250.812203 99.857,254.079547 C95.437507,256.248609 92.121169,258.424547 89.3409437,262.257359 C89.3495352,261.155641 89.3529718,260.607359 89.3529718,260.607359 C89.3529718,260.607359 89.3495352,261.155641 88.7996761,261.152203 L88.8031127,260.602203 C88.8031127,260.602203 88.7996761,261.152203 88.239507,262.250484 C88.2480986,261.148766 88.2480986,261.148766 88.2532535,260.598766 C87.6896479,262.245328 87.6862113,262.795328 87.1311972,263.341891 C87.1311972,263.341891 87.6827746,263.347047 87.6862113,262.795328 C87.6827746,263.347047 87.1277606,263.893609 87.1277606,263.893609 L88.2326338,263.350484 C87.1277606,263.893609 87.1277606,263.893609 87.1226056,264.443609 C87.6776197,263.897047 87.6776197,263.897047 88.782493,263.353922 C89.2893944,269.414234 87.584831,276.555641 88.0882958,283.165953 C87.4886056,289.765953 84.6808873,297.452203 81.8766056,304.588453 C81.8645775,306.238453 81.8525493,307.890172 80.7356479,310.083297 C79.0757606,311.172984 78.5104366,313.369547 77.9433944,315.569547 C76.8230563,318.312672 75.1442676,322.152359 74.0187746,325.447203 C70.6697887,332.028297 66.772662,338.054234 62.3222394,344.628453 C62.8806901,343.530172 64.5388592,342.440484 66.2107746,339.702516 C67.8758169,337.511109 69.5477324,334.771422 71.2196479,332.031734 C73.4482958,328.193766 75.1236479,324.904078 76.2525775,321.059234 C77.381507,317.216109 79.0568592,313.924703 81.285507,310.086734 C81.8594225,306.788453 84.6637042,299.653922 86.3751408,291.410797 C88.0831408,283.715953 88.7103239,273.262516 89.3340704,263.359078 L89.337507,262.807359 Z" id="Fill-1"></path>
                    <path d="M291.601479,221.358156 C291.043028,222.454719 291.037873,223.004719 290.481141,224.101281 C291.037873,223.004719 291.043028,222.454719 291.601479,221.358156 L291.601479,221.358156 Z M290.481141,224.101281 C290.463958,226.303 288.797197,228.492688 288.781732,230.694406 C288.797197,228.492688 290.463958,226.303 290.481141,224.101281 L290.481141,224.101281 Z M292.71838,219.163313 C292.163366,219.711594 292.15993,220.261594 291.604915,220.808156 C292.15993,220.261594 292.163366,219.711594 292.71838,219.163313 L292.168521,219.159875 C289.967366,219.142688 288.86593,219.135812 287.214634,219.123781 C288.86593,219.135812 290.517225,219.147844 292.168521,219.159875 L292.71838,219.163313 Z M275.320493,265.273938 C274.767197,265.8205 274.758606,266.922219 273.653732,267.461906 C274.758606,266.922219 274.767197,265.8205 275.320493,265.273938 L275.320493,265.273938 Z M273.653732,267.461906 C271.96807,272.405031 269.725676,277.894719 267.486718,282.830969 C270.278972,277.346437 272.521366,271.858469 273.653732,267.461906 L273.653732,267.461906 Z M264.691028,288.863781 C265.804493,287.222375 266.371535,285.024094 267.486718,282.830969 C267.483282,283.380969 266.371535,285.024094 264.691028,288.863781 L264.691028,288.863781 Z M261.330014,297.096594 C262.996775,294.906906 263.555225,293.810344 263.013958,292.706906 C263.55007,294.362062 262.441761,295.453469 261.330014,297.096594 L261.330014,297.096594 Z M264.691028,288.863781 C263.57069,291.608625 263.000211,294.356906 261.330014,297.096594 C262.993338,295.456906 263.008803,293.256906 263.57069,291.608625 C264.129141,290.512062 264.137732,289.412062 264.691028,288.863781 L264.691028,288.863781 Z M260.207958,299.841437 C260.768127,298.743156 260.771563,298.193156 261.330014,297.096594 C261.324859,297.646594 261.324859,297.646594 260.771563,298.193156 C260.207958,299.841437 259.649507,300.938 259.08762,302.584563 C259.096211,301.484563 259.649507,300.938 260.207958,299.841437 L260.207958,299.841437 Z M261.330014,297.096594 C259.654662,300.386281 258.529169,303.681125 256.862408,305.872531 C258.537761,302.581125 260.207958,299.841437 261.330014,297.096594 L261.330014,297.096594 Z M255.171592,311.363938 C255.750662,307.513937 257.417423,305.325969 259.08762,302.584563 C257.417423,305.325969 255.195648,308.0605 255.171592,311.363938 L255.171592,311.363938 Z M263.55007,294.362062 C271.959479,273.50675 280.911873,253.204875 286.539338,236.182375 C287.10638,233.984094 288.21469,232.890969 288.781732,230.694406 C284.869141,238.922062 282.599254,248.263469 279.233085,257.046281 C273.088408,269.661906 267.483282,283.380969 261.888465,296.000031 C259.649507,300.938 256.858972,306.420813 255.171592,311.363938 C257.417423,305.325969 260.207958,299.841438 263.55007,294.362062 L263.55007,294.362062 Z M254.621732,311.358781 C254.621732,311.358781 254.616577,311.9105 254.066718,311.907062 C249.037225,322.327844 244.57993,330.000344 239.579648,336.569406 C240.132944,336.024563 240.13638,335.474563 240.686239,335.476281 C242.904577,333.29175 244.021479,331.098625 245.13838,328.903781 C246.805141,326.714094 247.922042,324.51925 249.037225,322.327844 C250.716014,318.488156 252.94638,314.650188 254.621732,311.358781 L254.621732,311.358781 Z M252.391366,315.19675 C253.501394,314.103625 254.609704,313.0105 255.171592,311.363938 C255.166437,311.913937 254.05469,313.558781 251.826042,317.395031 C254.047817,314.658781 253.496239,314.653625 252.941225,315.200187 L255.730042,310.267375 C254.595958,314.662219 252.370746,317.948469 249.587085,322.331281 C249.021761,324.527844 247.355,326.71925 246.238099,328.912375 C245.122915,331.107219 243.454437,333.295187 241.232662,336.031438 C239.571056,337.671125 241.232662,336.031438 242.346127,334.388312 C244.562746,332.202063 245.679648,330.008938 245.672775,331.108938 C244.009451,332.748625 242.34269,334.938312 240.120915,337.674562 C239.565901,338.221125 239.559028,339.322844 238.449,340.415969 C239.565901,338.221125 240.682803,336.028 242.901141,333.84175 C246.796549,327.814094 249.592239,321.781281 252.391366,315.19675 L252.391366,315.19675 Z M251.271028,317.939875 C251.836352,315.743313 254.05469,313.558781 255.171592,311.363938 C251.836352,315.743313 250.148972,320.683 247.363592,325.617531 C244.576493,330.550344 241.232662,336.031438 238.449,340.415969 L238.445563,340.965969 C238.454155,339.86425 239.016042,338.215969 240.124352,337.124563 C244.576493,330.550344 248.471901,324.524406 251.271028,317.939875 L251.271028,317.939875 Z M230.409028,311.18175 C230.433085,307.880031 231.558577,304.585187 232.141085,300.185187 C232.723592,295.786906 233.859394,290.840344 234.993479,286.4455 C237.816662,276.557531 240.645,266.121281 242.894268,259.529875 C240.083113,267.767844 237.816662,276.557531 235.55193,285.347219 C233.285479,294.138625 231.570606,302.933469 230.409028,311.18175 L230.409028,311.18175 Z M238.543507,327.753938 C242.430324,322.829719 245.219141,317.896906 246.892775,314.6055 C244.110831,318.990031 241.880465,322.824563 239.105394,326.107375 C238.538352,328.305656 237.976465,329.952219 236.866437,331.045344 C235.204831,332.683312 233.541507,334.324719 232.431479,335.416125 C231.878183,335.962688 231.324887,336.50925 231.324887,336.50925 C230.769873,337.055813 230.220014,337.050656 230.220014,337.050656 C229.673592,336.497219 229.677028,335.947219 229.130606,335.392063 C229.134042,334.840344 228.589338,334.286906 229.142634,333.740344 C229.142634,333.740344 229.147789,333.188625 229.151225,332.638625 C228.613394,330.985188 228.625423,329.333469 228.640887,327.13175 C228.652915,325.480031 229.214803,323.83175 229.228549,322.18175 C229.214803,323.83175 228.652915,325.480031 228.640887,327.13175 C228.625423,329.333469 228.613394,330.985188 228.599648,332.635188 C229.147789,333.188625 229.142634,333.740344 229.142634,333.740344 C228.589338,334.286906 229.130606,335.392063 229.127169,335.942063 C229.673592,336.497219 230.220014,337.050656 230.220014,337.050656 C230.769873,337.055813 231.324887,336.50925 231.324887,336.50925 C231.878183,335.962688 232.431479,335.416125 232.986493,334.869563 C235.75469,332.68675 237.424887,329.948781 238.543507,327.753938 L238.543507,327.753938 Z M206.990183,352.84425 C206.443761,352.289094 204.79762,351.727062 203.706493,350.618469 C204.252915,351.171906 204.79762,351.727062 205.899056,351.733938 C206.990183,352.84425 208.638042,353.406281 210.835761,353.973469 C211.380465,354.526906 211.932042,354.530344 212.481901,354.5355 C210.835761,353.973469 208.638042,353.406281 206.990183,352.84425 L206.990183,352.84425 Z M179.476606,277.781281 C182.801535,274.503625 185.585197,270.120813 185.050803,267.913937 L186.160831,266.820812 C185.605817,267.369094 185.585197,270.120813 182.810127,273.401906 C180.033338,276.683 177.254831,280.517531 175.586352,282.707219 C175.033056,283.253781 177.251394,281.067531 179.476606,277.781281 L179.476606,277.781281 Z M191.307169,315.298156 L191.310606,314.748156 C191.307169,315.298156 191.303732,315.849875 190.748718,316.396437 C189.081958,318.584406 187.418634,320.222375 185.202014,322.410344 C182.426944,325.691438 178.547,329.517375 174.67393,332.239875 C169.701141,334.957219 166.379648,337.684875 162.511732,339.857375 C158.647254,341.481594 153.683056,343.0955 149.275592,343.614563 C150.377028,343.623156 153.133197,343.092062 156.997676,341.467844 C160.301986,340.941906 165.271338,338.776281 168.042972,336.045187 C173.56562,333.333 177.995423,329.512219 182.426944,325.691438 C184.093704,323.50175 186.310324,321.3155 188.526944,319.132687 C189.635254,318.039562 190.745282,316.946438 191.303732,315.849875 L191.307169,315.298156 Z M147.629451,343.050813 C150.38562,342.521438 154.244944,341.447219 159.755563,340.388469 C163.623479,338.21425 167.494831,335.490031 173.022634,332.227844 C177.449,328.958781 181.880521,325.138 185.210606,321.308625 C185.763901,320.762063 187.427225,319.124094 189.093986,316.932688 C189.649,316.387844 190.202296,315.841281 190.205732,315.289562 C190.210887,314.739563 190.760746,314.744719 191.86562,314.203313 C191.315761,314.199875 190.760746,314.744719 190.210887,314.739563 C187.423789,319.674094 183.540408,324.048313 178.559028,327.865656 C168.042972,336.045187 156.437507,342.564406 143.773563,343.573313 C143.773563,343.573313 145.978155,343.038781 147.629451,343.050813 L147.629451,343.050813 Z M279.922127,238.335969 C284.953338,227.363469 287.214634,219.123781 287.214634,219.123781 L292.168521,219.159875 C283.152549,247.716906 272.533394,270.208469 264.696183,288.3155 C265.80793,286.672375 266.371535,285.024094 266.929986,283.927531 C267.483282,283.380969 267.486718,282.830969 267.486718,282.830969 C266.929986,283.927531 266.36638,285.574094 265.80793,286.672375 C265.251197,287.768937 264.134296,289.962063 263.57069,291.608625 C263.017394,292.155188 266.36638,285.574094 265.80793,286.672375 C264.696183,288.3155 263.013958,292.706906 262.441761,295.453469 L261.330014,297.096594 C260.213113,299.291438 259.08762,302.584563 256.862408,305.872531 C255.171592,311.363938 251.829479,316.845031 249.599113,320.679563 L249.604268,320.129563 C250.154127,320.134719 250.157563,319.583 250.712577,319.038156 C251.271028,317.939875 251.832915,316.293312 252.391366,315.19675 C254.063282,312.457063 255.187056,309.162219 255.192211,308.612219 C252.384493,316.29675 248.475338,323.974406 243.463028,332.195187 C240.686239,335.476281 238.461028,338.76425 237.34069,341.507375 C236.790831,341.502219 236.790831,341.502219 236.237535,342.0505 C236.23238,342.6005 235.679085,343.145344 235.12407,343.693625 C232.352437,346.424719 224.587394,354.624875 214.686493,354.000969 L214.136634,353.997531 C195.998155,351.11175 191.721282,334.017062 193.504887,315.865344 C193.472239,320.268781 192.884577,325.218781 193.406944,329.075656 C193.932746,332.382531 193.912127,335.13425 194.998099,337.342844 C196.082352,339.554875 197.170042,341.21175 197.713028,342.316906 C197.170042,341.21175 196.082352,339.554875 194.451676,336.789406 C193.367423,334.579094 193.394915,330.727375 192.881141,325.768781 C192.857085,329.0705 193.925873,333.482531 194.446521,337.337688 C196.082352,339.554875 196.620183,341.208313 197.713028,342.316906 C198.250859,343.973781 198.793845,345.077219 198.78869,345.628938 C199.881535,346.735813 201.520803,348.401281 203.70993,350.068469 C205.902493,351.183937 208.09162,352.852844 210.289338,353.418313 C211.935479,353.980344 213.586775,353.994094 214.136634,353.997531 C215.232915,354.556125 216.884211,354.568156 218.538944,354.028469 C221.289958,354.049094 223.497986,352.964562 225.154437,352.426594 C227.364183,351.342062 229.575648,349.707531 230.685676,348.614406 C231.797423,346.971281 233.460746,345.333313 235.679085,343.145344 C236.23238,342.6005 236.787394,342.053937 237.34069,341.507375 C237.34069,341.507375 237.890549,341.510812 237.895704,340.960812 L238.445563,340.965969 C237.895704,340.960812 237.890549,341.510812 237.890549,341.510812 C237.337254,342.059094 236.782239,342.603938 236.228944,343.1505 L235.67393,343.697063 C235.118915,344.243625 234.569056,344.240188 234.569056,344.240188 C234.56562,344.790188 234.010606,345.33675 233.460746,345.333313 C231.24069,348.069563 229.018915,350.802375 225.704296,352.43175 C221.839817,354.05425 218.530352,355.130188 214.683056,354.550969 C211.935479,353.980344 208.088183,353.402844 205.899056,351.733938 C202.058634,350.056438 199.326521,347.284094 197.701,343.968625 C196.070324,341.204875 193.896662,337.335969 193.374296,333.477375 C192.85193,329.6205 192.331282,325.763625 192.913789,321.365344 C192.925817,319.715344 192.937845,318.063625 192.95331,315.860187 C192.387986,318.060187 192.370803,320.260188 192.355338,322.461906 C192.334718,325.213625 192.315817,327.965344 192.845056,330.722219 C193.374296,333.477375 193.901817,336.785969 195.532493,339.549719 C197.163169,342.313469 198.242268,345.073781 199.878099,347.287531 C202.058634,350.056438 205.347479,351.732219 208.09162,352.852844 C209.18962,353.409719 210.835761,353.973469 212.487056,353.9855 C213.031761,354.538937 214.133197,354.547531 214.133197,354.547531 L214.683056,354.550969 L215.232915,354.556125 C215.782775,354.559562 215.782775,354.559562 216.334352,354.564719 C220.185085,354.592219 222.94469,353.512844 226.809169,351.886906 C229.018915,350.802375 230.685676,348.614406 232.347282,346.974719 C233.45731,345.883312 234.56562,344.790188 236.223789,343.702219 C236.782239,342.603938 237.890549,341.510812 238.449,340.415969 C238.445563,340.965969 237.890549,341.510812 236.782239,342.603938 C234.562183,345.341906 231.788831,348.073 230.127225,349.712688 C226.809169,351.886906 222.94469,353.512844 220.185085,354.592219 C218.535507,354.580187 216.880775,355.118156 215.232915,354.556125 C214.133197,354.547531 212.481901,354.5355 210.835761,353.973469 C209.18962,353.409719 210.284183,353.968313 211.38562,353.976906 C213.031761,354.538937 214.133197,354.547531 214.128042,355.097531 C214.133197,354.547531 214.133197,354.547531 213.583338,354.544094 L214.133197,354.547531 C214.128042,355.097531 215.229479,355.104406 216.329197,355.113 C217.980493,355.125031 219.083648,354.585344 220.185085,354.592219 C219.635225,354.588781 218.535507,354.580187 217.428915,355.121594 C216.329197,355.113 215.229479,355.104406 214.128042,355.097531 C214.133197,354.547531 213.583338,354.544094 212.481901,354.5355 C210.284183,353.968313 208.638042,353.406281 206.990183,352.84425 C205.344042,352.282219 203.701338,351.16675 201.512211,349.503 C199.874662,347.837531 198.785254,346.178938 197.149423,343.965188 C196.616746,341.760031 194.982634,339.546281 193.350239,336.780813 C192.291761,331.268781 191.790014,324.660188 192.396577,316.958469 C192.379394,319.160188 192.360493,321.911906 191.790014,324.660188 C191.764239,327.961906 192.291761,331.268781 192.815845,334.575656 C193.893225,337.885969 195.518746,341.201437 197.149423,343.965188 C198.780099,346.728938 200.41593,348.942688 202.605056,350.609875 C203.151479,351.163312 203.154915,350.613313 202.605056,350.609875 C202.058634,350.056438 200.962352,349.497844 199.86607,348.93925 C199.323085,347.834094 198.780099,346.728938 198.238831,345.6255 C197.145986,344.515188 197.154577,343.415188 196.608155,342.860031 C194.974042,340.646281 193.341648,337.882531 192.265986,334.5705 C192.286606,331.8205 191.757366,329.061906 191.781423,325.760188 C192.355338,322.461906 192.375958,319.710188 192.400014,316.408469 C191.845,316.953313 191.291704,317.499875 191.291704,317.499875 C190.733254,318.598156 190.178239,319.144719 189.623225,319.689562 C187.406606,321.874094 185.189986,324.060344 183.523225,326.250031 C182.968211,326.796594 182.414915,327.343156 181.859901,327.889719 C181.306606,328.436281 180.751592,328.981125 180.196577,329.529406 C178.538408,330.617375 177.433535,331.1605 176.325225,332.251906 C170.793986,336.065812 166.362465,339.886594 160.293394,342.043625 C153.124606,344.193781 147.055535,346.350813 140.45207,346.300969 C136.603056,345.72175 133.30562,345.147687 130.013338,344.023625 C128.365479,343.459875 128.368915,342.909875 126.726211,341.796125 C124.530211,341.228937 122.887507,340.118625 121.79638,339.008312 C120.706972,337.348 119.622718,335.139406 118.53331,333.479094 C118.550493,331.279094 117.464521,329.068781 116.931845,326.863625 C115.308042,322.998156 115.34069,318.594719 113.722042,314.17925 C113.751254,310.325812 112.682465,305.913781 112.715113,301.512062 C112.192746,297.655188 112.775254,293.255188 112.258042,288.848313 C112.318183,280.591437 113.483197,271.793156 114.098352,262.989719 C115.254775,255.293156 115.32007,246.486281 117.034944,237.691438 C118.741225,229.996594 120.457817,221.203469 122.719113,212.963781 C124.980408,204.722375 127.241704,196.480969 129.504718,188.243 C131.216155,179.998156 134.022155,172.311906 139.032746,164.641125 C140.711535,160.803156 142.940183,156.965188 145.165394,153.678937 C147.942183,150.396125 150.717254,147.113313 154.590324,144.390812 C156.25193,142.752844 157.911817,141.663156 160.119845,140.576906 C162.329592,139.492375 164.534183,138.959563 166.740493,138.425031 C167.290352,138.428469 167.840211,138.431906 168.39007,138.435344 L168.941648,138.4405 L169.491507,138.443937 L170.041366,138.449094 L170.592944,138.452531 C171.687507,139.011125 172.788944,139.019719 173.335366,139.574875 C174.981507,140.136906 177.179225,140.702375 178.82193,141.816125 C181.019648,142.383313 182.658915,144.045344 184.848042,145.71425 C186.485592,147.376281 188.123141,149.040031 188.657535,151.246906 C189.195366,152.900344 190.827761,155.665813 191.360437,157.870969 C191.339817,160.624406 191.874211,162.829563 191.85531,165.579563 C191.267648,170.529562 190.135282,174.926125 189.552775,179.324406 L188.444465,180.417531 L188.432437,182.06925 L187.861958,184.817531 C188.394634,187.022687 187.279451,189.217531 186.712408,191.414094 C183.906408,199.100344 181.646831,206.790031 179.39069,214.479719 C173.770099,230.4005 168.704521,245.776437 164.738662,261.15925 C164.176775,262.805813 163.609732,265.005813 162.497986,266.648937 L162.47393,269.950656 C162.468775,270.500656 161.910324,271.597219 161.903451,272.698938 C160.774521,276.542062 160.195451,280.392063 159.621535,283.692063 C159.609507,285.343781 159.045901,286.990344 159.588887,288.093781 C159.583732,288.642063 159.580296,289.193781 159.580296,289.193781 C160.131873,289.198937 160.131873,289.198937 160.126718,289.748938 L160.131873,289.198937 L159.580296,289.193781 C160.131873,289.198937 160.681732,289.202375 160.681732,289.202375 C161.235028,288.655813 162.889761,288.117844 163.999789,287.026437 C170.639338,282.121125 176.744493,275.010656 180.653648,267.331281 C185.662521,259.662219 190.128408,250.888 192.944718,242.10175 C196.860746,233.322375 200.773338,225.094719 203.043225,215.753313 C206.409394,206.9705 209.772127,198.739406 212.042014,189.398 C214.28269,183.910031 217.074944,178.4255 219.320775,172.387531 C220.439394,169.644406 221.561451,166.899563 223.236803,163.609875 C224.907,160.870187 227.132211,157.583938 228.254268,154.839094 C230.470887,152.652844 233.79238,149.925187 236.560577,147.744094 C237.674042,146.100969 239.878634,145.566438 242.083225,145.031906 C243.188099,144.4905 244.289535,144.497375 244.842831,143.950812 C245.39269,143.955969 245.944268,143.959406 246.494127,143.962844 L247.043986,143.968 L247.593845,143.971438 L248.143704,143.976594 C250.344859,143.992063 252.542577,144.557531 254.190437,145.121281 C255.831423,146.235031 258.023986,147.3505 259.663254,149.01425 C260.752662,150.674563 261.840352,152.333156 262.929761,153.993469 C264.017451,155.652062 265.101704,157.862375 265.636099,160.067531 C266.708324,163.927844 267.234127,167.234719 266.656775,171.083 C266.632718,174.384719 266.603507,178.239875 266.582887,180.991594 C266.558831,184.293313 267.081197,188.150188 265.957423,191.44675 L265.39038,193.643313 L265.386944,194.193312 L265.381789,194.745031 L265.378352,195.295031 L265.369761,196.395031 C264.807873,198.041594 264.245986,199.689875 263.68238,201.336437 C261.391873,213.429563 257.998211,226.065812 254.613141,237.598625 C253.494521,239.793469 252.929197,241.990031 251.812296,244.184875 L251.807141,244.734875 L251.803704,245.284875 L251.807141,244.734875 L251.798549,245.834875 L252.338099,247.49175 C251.22807,248.584875 251.221197,249.684875 251.212606,250.786594 C250.080239,255.181438 248.947873,259.574562 247.818944,263.421125 C245.550775,272.760813 242.737901,280.997062 239.925028,289.233313 C238.213592,297.476438 236.50731,305.173 235.350887,312.869562 C235.342296,313.971281 234.787282,314.517844 234.232268,315.064406 C234.228831,315.614406 234.775254,316.167844 234.775254,316.167844 L234.771817,316.717844 L234.775254,316.167844 L234.771817,316.717844 L234.766662,317.269563 C234.201338,319.467844 234.187592,321.117844 234.177282,322.769563 C234.16869,323.869563 233.610239,324.966125 233.606803,325.517844 C234.160099,324.969562 234.715113,324.424719 235.268408,323.876438 C237.49362,320.590188 239.168972,317.3005 240.839169,314.562531 C244.195028,307.429719 247.544014,300.848625 250.894718,294.267531 C254.805592,286.041594 255.365761,284.943312 257.611592,278.905344 C259.836803,275.619094 257.044549,281.103625 257.597845,280.555344 C262.623901,270.684563 265.998662,260.80175 267.103535,260.258625 C265.978042,263.553469 265.428183,263.550031 263.185789,269.038 C263.166887,271.789719 267.094944,261.360344 267.094944,261.360344 C266.524465,264.108625 264.299254,267.394875 263.154859,273.441438 C267.079479,263.562063 267.086352,262.460344 272.662268,252.594719 C272.665704,252.044719 272.103817,253.691281 271.54193,255.339562 C272.10038,254.241281 272.669141,251.493 274.899507,247.65675 C272.665704,252.044719 274.911535,246.005031 276.590324,242.163625 C276.586887,242.715344 274.911535,246.005031 275.451085,247.660188 C275.451085,247.660188 275.461394,246.008469 276.028437,243.811906 C276.586887,242.715344 277.145338,241.618781 277.148775,241.067063 C277.707225,239.9705 277.71238,239.4205 277.71238,239.4205 C280.492606,235.587688 276.574859,244.367063 275.995789,248.215344 C276.562831,246.017063 278.805225,240.529094 279.367113,238.882531 L279.922127,238.335969 Z" id="Fill-4"></path>
                    <path d="M404.827101,314.113594 C408.155468,310.284219 411.494144,305.354844 415.379242,300.978906 C419.267777,296.052969 422.054876,291.120156 423.72851,287.830469 C420.379524,294.411562 417.046003,298.789219 413.715918,302.620313 C410.932256,307.001406 407.602172,310.830781 404.827101,314.113594 L404.827101,314.113594 Z M374.034989,310.585 C374.014369,313.336719 374.54189,316.643594 375.620989,319.403906 C376.15882,321.059062 376.151946,322.159063 377.794651,323.271094 C378.341073,323.82625 378.887496,324.381406 379.437355,324.386562 C379.987214,324.39 379.983777,324.938281 379.983777,324.938281 L380.533637,324.943437 C381.083496,324.946875 381.083496,324.946875 381.629918,325.502031 C384.382651,325.522656 387.686961,324.995 390.446566,323.915625 C392.656313,322.829375 395.970932,321.203437 398.182397,319.568906 C396.524228,320.658594 393.764623,321.737969 391.00158,323.369062 C389.896707,323.910469 388.241975,324.450156 386.587242,324.986406 C385.482369,325.53125 383.832792,325.5175 382.181496,325.505469 C381.083496,324.946875 380.533637,324.943437 379.987214,324.39 C378.887496,324.381406 378.341073,323.82625 377.794651,323.271094 C376.151946,322.159063 376.15882,321.059062 375.620989,319.403906 C374.545327,316.091875 374.019524,312.786719 374.034989,310.585 L374.034989,310.585 Z M347.445862,184.337656 C349.647017,184.353125 352.944454,184.927188 354.595749,184.939219 C354.595749,184.939219 355.145608,184.944375 355.692031,185.497812 C355.145608,184.944375 352.944454,184.927188 350.196876,184.356562 C347.445862,184.337656 344.698285,183.765312 342.505721,182.649844 C342.505721,182.649844 344.148425,183.761875 347.445862,184.337656 L347.445862,184.337656 Z M460.558763,218.745312 C458.287158,228.085 454.920989,236.867813 452.101242,246.204062 C448.726482,256.086875 443.702144,265.957656 440.335975,274.742188 C438.097017,279.680156 435.859777,284.616406 433.076115,289.000937 C431.388735,293.942344 428.055214,298.321719 425.82313,302.707969 C420.803946,311.47875 414.133468,320.7875 407.473299,328.444531 C406.364989,329.537656 406.918285,328.989375 408.026594,327.897969 C408.581608,327.351406 409.691637,326.256562 409.695073,325.706563 C409.131468,327.354844 407.464707,329.54625 405.801383,331.184219 C403.589918,332.81875 401.373299,335.003281 400.268425,335.546406 C402.47989,333.911875 406.352961,331.187656 408.023158,328.447969 C409.695073,325.706563 411.361834,323.518594 414.130031,321.3375 C410.244932,325.711719 407.46127,330.094531 401.368144,335.555 C399.151524,337.74125 396.383327,339.922344 393.060115,342.65 C389.1922,344.8225 383.666115,348.086406 378.701918,349.700312 C380.356651,349.162344 382.011383,348.624375 384.219411,347.538125 C386.980735,346.45875 389.738623,345.377656 391.948369,344.293125 C395.824876,341.018906 399.701383,337.744687 403.019439,335.567031 C403.57789,334.470469 403.019439,335.567031 401.905975,337.210156 C400.247806,338.298125 399.134341,339.94125 398.57589,341.039531 C393.591073,345.406875 386.960115,349.210469 382.540623,351.38125 C377.017975,354.091719 371.507355,355.152187 365.450313,355.6575 L364.350594,355.650625 C363.800735,355.645469 363.245721,356.190313 363.245721,356.190313 C362.694144,356.186875 362.694144,356.186875 362.146003,356.185156 C360.498144,355.621406 359.398425,355.614531 358.296989,355.605937 C356.100989,355.040469 353.353411,354.468125 350.604115,353.8975 C347.861693,352.775156 345.672566,351.107969 342.387158,348.882187 C339.644735,347.761562 339.113777,345.006406 337.479665,342.792656 C332.56358,337.803125 330.948369,332.837656 328.788454,327.317031 C327.181834,321.248125 326.671496,315.74125 326.161158,310.232656 C326.190369,306.380937 326.223017,301.975781 325.695496,298.670625 C326.824425,294.824062 326.303777,290.967187 326.33127,287.115469 C326.913777,282.715469 327.492848,278.867188 328.0702,275.018906 C328.082228,273.367187 328.64927,271.170625 328.664735,268.967187 L328.685355,266.215469 L328.688792,265.665469 L328.693946,265.115469 L328.697383,264.56375 L329.255834,263.467187 C331.51713,255.2275 332.120256,248.0775 334.378115,240.387812 C334.948594,237.637812 336.068932,234.894688 337.194425,231.599844 C335.539693,232.139531 334.438256,232.130937 333.335101,232.672344 C326.723045,233.725937 320.114425,234.227812 313.516115,233.627969 C309.665383,233.59875 306.917806,233.028125 303.623806,231.904062 C300.329806,230.78 297.035806,229.654219 293.745242,227.978437 C290.456397,226.304375 286.624566,223.521719 284.999045,220.207969 C283.375242,216.3425 282.29958,213.032187 281.777214,209.175313 C279.60527,205.306406 279.632763,201.452969 280.211834,197.604687 C280.789186,193.756406 280.809806,191.004687 281.93358,187.709844 C283.088285,180.561562 285.887411,173.977031 288.133242,167.939062 C288.691693,166.840781 288.69513,166.290781 288.703721,165.190781 L289.257017,164.644219 L289.262172,164.094219 L290.367045,163.551094 C292.033806,161.363125 292.597411,159.714844 293.154144,158.618281 L293.712594,157.521719 L294.271045,156.425156 C294.824341,155.878594 295.379355,155.332031 295.934369,154.785469 C297.046115,153.142344 297.609721,151.495781 298.718031,150.402656 C302.59282,147.128437 304.811158,144.942187 308.134369,142.214531 C309.242679,141.121406 311.44727,140.586875 313.102003,140.048906 C314.760172,138.960938 316.964763,138.426406 319.165918,138.441875 L319.717496,138.445312 L320.817214,138.453906 C321.918651,138.4625 322.46851,138.465937 323.014932,139.021094 C324.114651,139.029687 326.312369,139.595156 327.405214,140.70375 C329.051355,141.2675 330.140763,142.926094 331.228454,144.584687 C332.871158,145.698437 333.408989,147.353594 332.297242,148.996719 C332.288651,150.098437 332.831637,151.203594 332.81789,152.855312 L332.814454,153.405312 C332.811017,153.955312 332.811017,153.955312 332.805862,154.505313 L332.252566,155.051875 L332.243975,156.153594 L332.240538,156.703594 C332.237101,157.253594 332.237101,157.253594 332.231946,157.803594 L332.219918,159.455312 C331.649439,162.203594 331.633975,164.405312 333.268087,166.617344 C334.352341,168.827656 335.441749,170.487969 337.081017,172.15 C339.807975,175.472344 344.193101,177.708438 349.683101,179.399687 C354.085411,179.432344 359.034144,180.018438 363.986313,180.054531 C365.091186,179.513125 366.201214,178.42 367.309524,177.326875 C368.97113,175.687187 371.732454,174.607812 373.940482,173.521562 C376.150228,172.437031 377.806679,171.349062 380.559411,171.367969 C382.764003,170.835156 385.515017,170.854062 387.712735,171.42125 C388.259158,171.976406 388.810735,171.979844 389.360594,171.983281 C389.910454,171.988437 389.910454,171.988437 390.456876,172.541875 L391.006735,172.547031 L391.553158,173.100469 L392.103017,173.105625 C392.649439,173.659062 393.199299,173.664219 394.29558,174.221094 C395.943439,174.784844 397.586144,175.896875 398.675552,177.557187 C400.313101,179.220937 402.502228,180.888125 403.036623,183.093281 C404.124313,184.751875 405.210285,186.962187 406.294538,189.1725 C406.820341,192.479375 407.34958,195.234531 406.775665,198.532812 C406.205186,201.281094 406.184566,204.032812 405.610651,207.331094 C404.469693,212.827656 402.223862,218.867344 399.983186,224.353594 C399.41958,226.001875 398.86113,227.100156 398.852538,228.198437 C398.292369,229.846719 397.737355,230.393281 397.178904,231.489844 C396.617017,233.136406 395.506989,234.229531 394.395242,235.872656 L394.381496,237.522656 L393.816172,239.720937 C392.125355,245.214062 389.338256,250.148594 387.645721,255.64 L388.200735,255.093437 L387.645721,255.64 C385.396454,262.227969 383.150623,268.265938 382.006228,274.314219 C380.856679,280.910781 378.603975,288.050469 378.012876,293.54875 C377.433806,297.397031 376.854735,301.24875 376.834115,303.99875 C376.2602,307.297031 376.786003,310.605625 377.313524,313.910781 C377.292904,316.6625 377.818707,319.969375 380.012989,321.086562 C380.012989,321.086562 380.56113,321.091719 380.007834,321.636562 L380.557693,321.64 L381.104115,322.195156 C381.104115,322.195156 381.653975,322.198594 382.202115,322.75375 C383.301834,322.760625 384.95313,322.774375 386.056285,322.23125 C388.812454,321.700156 391.568623,321.170781 394.331665,319.541406 C397.094707,317.910312 399.30789,316.274062 402.076087,314.092969 C405.956031,310.26875 408.734538,306.435937 412.068059,302.054844 C415.399862,298.227188 418.73682,293.297812 422.075496,288.368437 C424.862594,283.433906 427.644538,279.052812 429.883496,274.114844 C432.108707,270.826875 433.222172,269.18375 433.230763,268.08375 C433.792651,266.437187 434.351101,265.338906 435.462848,263.695781 C436.583186,260.952656 434.904397,264.792344 434.904397,264.792344 C438.808397,257.666406 441.06282,250.526719 441.62127,249.430156 C441.055946,251.628437 441.050792,252.178437 439.925299,255.473281 C439.368566,256.569844 439.925299,255.473281 440.488904,253.825 C441.050792,252.178437 441.614397,250.531875 441.614397,250.531875 C441.050792,252.178437 440.480313,254.925 438.799806,258.768125 C439.925299,255.473281 441.043918,253.278437 441.059383,251.076719 C442.17113,249.435312 443.839608,247.243906 445.516679,243.404219 C445.521834,242.854219 444.958228,244.500781 444.401496,245.597344 C444.958228,244.500781 445.52527,242.3025 446.645608,239.559375 C445.521834,242.854219 446.6542,238.457656 448.324397,235.717969 C447.221242,236.261094 446.6542,238.457656 446.645608,239.559375 L446.650763,239.007656 C446.657637,237.907656 447.212651,237.361094 447.221242,236.261094 C448.329552,235.167969 449.437862,234.074844 449.443017,233.523125 C451.114932,230.785156 447.216087,236.811094 446.645608,239.559375 C447.209214,237.911094 449.437862,234.074844 449.996313,232.978281 L450.001468,232.428281 C451.680256,228.586875 453.365918,223.645469 455.053299,218.704062 L460.007186,218.740156 C460.007186,218.740156 420.5462,346.704531 364.419327,346.29375 C351.212397,346.195781 343.017777,337.87875 338.706538,325.7375 C339.251242,326.290937 339.244369,327.392656 339.785637,328.497812 C341.419749,330.711562 341.395693,334.013281 343.576228,336.782187 C344.669073,337.8925 346.306623,339.554531 347.401186,340.663125 C349.588594,342.330312 351.233017,343.442344 352.879158,344.007812 C356.164566,346.231875 359.462003,346.805937 362.764594,346.831719 C363.860876,347.388594 366.062031,347.405781 369.368059,346.879844 C372.674087,346.353906 375.978397,345.827969 379.842876,344.20375 C383.152341,343.127813 385.915383,341.496719 388.680144,339.863906 C390.893327,338.231094 393.101355,337.144844 394.209665,336.053437 C393.651214,337.15 392.544623,338.243125 390.888172,338.781094 C389.228285,339.869062 387.566679,341.50875 384.803637,343.139844 C386.461806,342.051875 389.224848,340.420781 391.438031,338.784531 C393.651214,337.15 395.314538,335.510312 396.424566,334.417188 C398.632594,333.334375 403.055524,330.613594 404.734313,326.772187 C408.059242,323.494531 410.839468,319.663437 413.057806,317.475469 C417.503073,311.454687 420.845186,305.973594 424.737158,300.497656 C428.632566,294.471719 431.429975,288.438906 434.222228,282.952656 C434.217073,283.502656 432.546876,286.242344 431.979834,288.440625 C431.42482,288.988906 431.417946,290.087187 430.309637,291.180312 C430.304482,291.732031 429.746031,292.826875 429.746031,292.826875 C431.971242,289.542344 433.105327,285.145781 435.88727,280.764687 C438.117637,276.926719 439.24313,273.631875 440.906454,271.993906 C439.237975,274.183594 437.559186,278.023281 436.433693,281.318125 C437.554031,278.573281 440.351439,272.540469 442.042256,267.047344 C444.832792,261.562812 447.6302,255.53 448.75913,251.683437 C444.277777,262.659375 440.339411,274.190469 433.096735,286.2475 C430.847468,292.835469 426.953777,298.313125 423.608228,304.3425 C420.257524,310.925312 415.812256,316.944375 410.265552,322.958281 C405.818566,328.9825 399.725439,334.44125 394.190763,338.805156 C391.422566,340.98625 388.650932,343.719063 384.786454,345.341562 C380.372115,346.960625 376.507637,348.584844 373.203327,349.109062 C370.998735,349.645312 369.344003,350.181562 367.692707,350.17125 C366.587834,350.712656 365.486397,350.704062 364.386679,350.697187 C364.386679,350.697187 363.285242,350.688594 362.185524,350.68 C358.333073,350.6525 354.489214,349.523281 350.645355,348.394063 C347.909806,346.171719 345.724115,343.952812 342.443862,341.177031 C339.713468,338.404687 337.536369,335.085781 337.560425,331.784063 C336.446961,333.425469 337.536369,335.085781 339.167045,337.85125 C341.352735,340.070156 343.528115,343.387344 346.813524,345.613125 C347.902932,347.271719 350.093777,348.388906 351.741637,348.952656 C353.939355,349.519844 356.137073,350.087031 358.882932,350.657656 C360.534228,350.669687 363.281806,351.238594 365.486397,350.704062 C367.687552,350.72125 369.344003,350.181562 371.543439,350.19875 C373.19989,349.660781 376.5042,349.134844 379.263806,348.05375 C384.228003,346.439844 388.647496,344.269062 392.524003,340.994844 C396.395355,338.272344 399.716848,335.542969 405.256679,330.629062 C408.035186,326.79625 411.368707,322.416875 415.803665,318.046094 C425.259524,304.354531 433.08127,288.449219 440.897862,273.093906 C448.164594,257.735156 453.228454,242.359219 457.721834,230.281563 C457.744172,226.979844 459.428115,222.590156 460.558763,218.745312 L461.115496,217.647031 L460.558763,218.745312 Z" id="Fill-6"></path>
                    <path d="M584.01211,42.405 C583.994927,44.6067187 583.986335,45.7067187 582.871152,47.9015625 C582.859124,49.5532812 581.745659,51.1964062 581.18549,52.2929687 C581.745659,51.1964062 582.862561,49.0032812 583.979462,46.8084375 C583.994927,44.6067187 584.003518,43.5067187 584.01211,42.405 L584.01211,42.405 Z M580.61673,55.04125 C579.504983,56.684375 578.939659,58.8809375 577.824476,60.5240625 C576.16287,62.16375 575.040814,64.9085937 574.478927,66.556875 C576.16287,62.16375 578.939659,58.8809375 580.61673,55.04125 L580.61673,55.04125 Z M542.764082,114.210937 C542.209068,114.7575 538.891011,116.935156 538.335997,117.481719 C538.332561,118.031719 541.659208,114.754062 542.209068,114.7575 L542.764082,114.210937 Z M544.571744,17.895625 C546.233349,16.2576562 548.441377,15.173125 550.099546,14.0834375 C551.76287,12.4454687 554.519039,11.914375 555.622194,11.37125 L556.727068,10.8298437 C556.177208,10.8246875 552.864307,12.4523437 548.991237,15.1765625 C545.128476,16.8007812 541.806983,19.5267187 537.933913,22.2509375 C537.380617,22.7975 541.251969,20.0732812 544.571744,17.895625 L544.571744,17.895625 Z M540.322363,71.809375 C541.427237,71.26625 543.126645,64.6748437 545.353575,61.3885937 C545.908589,60.2903125 546.475631,58.0920312 547.037518,56.4454687 C548.157856,53.7023437 548.724899,51.5040625 550.379631,50.9660937 C550.376194,51.5160937 550.367603,52.6178125 548.699124,54.8075 C550.364166,53.1678125 550.92949,50.9695312 550.938082,49.8695312 C551.496532,48.7729687 553.730335,44.385 554.285349,43.8384375 C555.96242,39.99875 558.7478,35.6142187 560.973011,32.3279687 C560.969575,32.8796875 560.96442,33.4296875 560.411124,33.97625 C560.405969,34.5279687 559.850955,35.0728125 559.850955,35.0728125 C560.402532,35.0779687 560.405969,34.5279687 560.960983,33.9796875 C560.96442,33.4296875 560.969575,32.8796875 560.973011,32.3279687 C562.081321,31.2365625 563.194786,29.5934375 563.199941,29.0434375 C563.194786,29.5934375 562.084758,30.6865625 562.084758,30.6865625 C562.081321,31.2365625 561.526307,31.7814062 561.52287,32.333125 C561.531462,31.233125 563.194786,29.5934375 564.856392,27.95375 C565.964701,26.860625 567.071293,26.3192187 567.078166,25.2175 C565.414842,26.8571875 563.194786,29.5934375 560.960983,33.9796875 C558.734054,37.2659375 555.950392,41.64875 554.82318,45.4935937 C552.585941,50.4315625 551.451856,54.828125 549.764476,59.7695312 C546.985969,63.6023437 545.848448,68.5471875 544.721237,72.3920312 C545.824392,71.8489062 546.427518,64.6989062 549.759321,60.3195312 C550.877941,58.1246875 553.1358,50.435 555.379913,44.3970312 C557.062138,40.0073437 560.955828,34.5296875 563.734335,30.696875 C565.406251,27.9571875 566.514561,26.8640625 568.727744,25.2295312 C569.284476,24.6829687 570.387631,24.1415625 570.939208,24.145 C571.494223,23.5984375 572.597377,23.0553125 573.147237,23.0604687 L574.798532,23.0725 C575.898251,23.079375 575.898251,23.079375 576.449828,23.0845312 L577.549546,23.093125 C575.898251,23.079375 574.246955,23.0690625 573.147237,23.0604687 C572.597377,23.0553125 571.494223,23.5984375 570.387631,24.1415625 C567.07473,25.7675 565.961265,27.410625 564.292786,29.6003125 C561.519434,32.883125 560.948955,35.6314062 557.61887,39.4607812 C556.496814,42.2039062 555.379913,44.3970312 554.252701,48.241875 C554.249265,48.7935937 554.807715,47.6953125 554.807715,47.6953125 C554.252701,48.241875 553.687377,50.4401562 553.682223,50.9901562 C554.245828,49.3435937 555.364448,46.59875 555.926335,44.9504687 C554.249265,48.7935937 553.673631,52.091875 551.424363,58.6798437 C551.981096,57.5832812 553.666758,53.191875 554.781941,50.99875 C555.336955,50.4521875 554.766476,53.19875 554.763039,53.7504687 C553.628955,58.1453125 553.058476,60.8935937 552.487997,63.641875 C551.367659,66.3867187 550.793744,69.685 550.221546,72.4332812 C548.542758,76.2729687 546.874279,79.0126562 545.747068,82.3075 C544.612983,87.2540625 542.925603,92.1954687 541.236504,97.136875 C539.000983,102.074844 537.308448,107.56625 535.072927,112.504219 C535.06949,113.054219 535.064335,113.604219 535.060899,114.155937 C540.052589,108.686875 545.054589,102.119531 550.596138,96.655625 C553.3798,92.2728125 556.711603,87.8934375 560.596701,83.5175 C562.818476,80.78125 563.380363,79.1346875 565.596983,76.9484375 C566.715603,74.7553125 568.389237,71.465625 570.057715,69.2759375 C571.733068,65.98625 575.061434,62.1551562 576.190363,58.3103125 C577.853687,56.6723437 579.522166,54.4826562 580.084054,52.8360937 C580.645941,51.1878125 581.207828,49.5395312 581.769715,47.8929687 C583.994927,44.6067187 584.020701,41.305 584.603208,36.905 C584.615237,35.255 584.618673,34.705 584.630701,33.0532812 L584.625546,33.6032812 C584.630701,33.0532812 584.630701,33.0532812 584.634138,32.5015625 L584.637575,31.9515625 C584.64273,31.4015625 584.64273,31.4015625 584.646166,30.8515625 L585.204617,29.755 C584.659913,29.1998437 584.666786,28.098125 584.666786,28.098125 L584.659913,29.1998437 C584.659913,29.1998437 585.204617,29.755 584.646166,30.8515625 C584.64273,31.4015625 584.659913,29.1998437 584.663349,28.6498437 L584.659913,29.1998437 C584.659913,29.1998437 585.209772,29.2032812 585.204617,29.755 L584.646166,30.8515625 L584.64273,31.4015625 C585.204617,29.755 585.209772,29.2032812 584.663349,28.6498437 C584.663349,28.6498437 584.666786,28.098125 584.671941,27.548125 C583.570504,27.54125 583.573941,26.9895312 583.024082,26.9860937 L583.573941,26.9895312 C583.024082,26.9860937 583.029237,26.4360937 582.481096,25.8809375 L582.477659,26.4326562 C582.481096,25.8809375 581.934673,25.3257812 581.934673,25.3257812 L582.481096,25.8809375 C582.481096,25.8809375 581.931237,25.8775 581.934673,25.3257812 L581.384814,25.3223437 L581.389969,24.7723437 C580.843546,24.2171875 581.934673,25.3257812 582.481096,25.8809375 L581.934673,25.3257812 L581.389969,24.7723437 C580.298842,23.66375 579.200842,23.1051562 577.552983,22.543125 C566.029997,18.05375 552.666701,39.4246875 540.322363,71.809375 L540.322363,71.809375 Z M527.520955,316.664219 C529.72211,316.681406 532.481715,315.600312 534.138166,315.062344 C531.926701,316.146875 529.172251,316.67625 527.520955,316.664219 L527.520955,316.664219 Z M524.513913,276.460937 C524.498448,278.660937 525.036279,280.317812 525.027687,281.417812 C524.4658,283.066094 524.453772,284.716094 524.986448,286.922969 C524.96411,290.226406 524.94349,292.976406 524.914279,296.828125 C524.324899,302.329844 524.280223,308.383281 523.692561,313.333281 L523.690842,313.883281 C523.721772,309.481562 524.304279,305.081562 524.336927,300.678125 C524.914279,296.828125 524.946927,292.426406 524.972701,289.124687 C525.003631,284.719531 525.032842,280.867812 524.513913,276.460937 L524.513913,276.460937 Z M507.851462,297.252656 C507.851462,297.252656 509.028504,286.804375 506.370279,274.123437 C506.370279,274.123437 506.366842,274.675156 506.90811,275.780312 C506.892645,277.980312 506.880617,279.632031 507.423603,280.738906 C506.868589,281.28375 507.409856,282.388906 506.847969,284.037187 C506.839377,285.138906 506.829068,286.788906 506.823913,287.338906 C506.274054,287.335469 506.27749,286.785469 506.289518,285.13375 C506.286082,285.68375 506.274054,287.335469 506.268899,287.885469 C506.262025,288.987187 506.244842,291.187187 506.241406,291.737187 C506.229377,293.388906 506.213913,295.590625 506.200166,297.242344 C506.19673,297.792344 506.193293,298.342344 506.184701,299.444062 C506.188138,298.892344 506.200166,297.242344 505.650307,297.238906 C505.643434,298.338906 505.626251,300.538906 505.622814,301.090625 C505.622814,301.090625 505.629687,299.988906 505.634842,299.438906 C505.076392,300.537187 505.598758,304.394062 505.590166,305.494062 C505.610786,302.742344 505.629687,299.988906 505.100448,297.23375 C505.109039,296.132031 505.112476,295.582031 505.124504,293.932031 C504.578082,293.378594 504.586673,292.276875 504.59011,291.726875 C505.151997,290.080312 505.164025,288.428594 505.177772,286.776875 C505.205265,282.921719 505.232758,279.07 503.607237,275.75625 C503.602082,276.30625 503.598645,276.85625 504.682899,279.066562 C504.676025,280.168281 505.213856,281.821719 504.655406,282.92 C504.643377,284.57 505.164025,288.428594 504.59011,291.726875 L504.574645,293.928594 C504.562617,295.578594 504.557462,296.128594 504.54887,297.230312 C504.517941,301.63375 505.581575,306.595781 506.112532,309.350937 C506.109096,309.902656 506.100504,311.002656 506.638335,312.657812 L507.189913,312.662969 C507.779293,307.16125 507.268955,301.654375 507.851462,297.252656 L507.851462,297.252656 Z M501.261744,220.142656 C503.456025,221.261562 504.543715,222.920156 506.182983,224.583906 C509.456363,228.461406 510.528589,232.321719 513.795096,237.299219 C515.422335,240.612969 517.587406,245.583594 519.204335,249.999062 C519.19918,250.550781 519.747321,251.104219 519.742166,251.654219 L519.730138,253.305937 L519.726701,253.855937 C520.819546,254.96625 520.810955,256.06625 520.8058,256.61625 C521.336758,259.373125 522.417575,262.131719 522.951969,264.338594 C522.414138,262.683437 522.426166,261.031719 521.345349,258.271406 C520.802363,257.167969 520.8058,256.61625 520.814392,255.51625 C520.819546,254.96625 520.822983,254.41625 519.726701,253.855937 L519.730138,253.305937 L519.742166,251.654219 C518.125237,247.23875 516.513462,241.723281 514.341518,237.852656 C512.17473,232.88375 509.456363,228.461406 506.18642,224.033906 C504.54887,222.370156 503.456025,221.261562 501.261744,220.142656 L501.261744,220.142656 Z M497.359462,302.130469 C496.818194,301.027031 496.821631,300.475312 496.825068,299.925312 C496.821631,300.475312 497.364617,301.580469 497.911039,302.135625 C497.899011,303.787344 498.445434,304.340781 498.991856,304.895937 C498.44887,303.790781 497.905885,302.687344 497.359462,302.130469 L497.359462,302.130469 Z M494.838701,270.7375 C494.251039,275.6875 494.752786,282.296094 495.80611,288.909844 C496.328476,292.765 497.943687,297.732187 498.472927,300.487344 C499.562335,302.147656 500.09673,304.352812 501.732561,306.016562 C502.830561,306.575156 502.830561,306.575156 503.376983,307.128594 C503.371828,307.680312 502.825406,307.126875 503.376983,307.128594 C503.918251,308.23375 503.914814,308.78375 503.3598,309.332031 C503.914814,308.78375 503.914814,308.78375 503.918251,308.23375 L503.3598,309.332031 C503.914814,308.78375 503.914814,308.78375 503.368392,308.230312 L503.3598,309.332031 C503.356363,309.882031 503.3598,309.332031 503.3598,309.332031 C503.3598,309.332031 503.356363,309.882031 503.906223,309.885469 C503.356363,309.882031 503.902786,310.435469 504.452645,310.440625 C504.452645,310.440625 503.902786,310.435469 503.906223,309.885469 C503.906223,309.885469 503.902786,310.435469 504.452645,310.440625 C504.999068,310.995781 503.902786,310.435469 503.902786,310.435469 L504.449208,310.992344 C504.992194,312.095781 506.091913,312.104375 506.638335,312.657812 C505.574701,307.6975 504.512786,302.185469 504.54887,297.230312 L504.562617,295.578594 C504.566054,295.028594 504.574645,293.928594 504.581518,292.826875 C504.59011,291.726875 505.145124,291.178594 505.151997,290.080312 L505.148561,290.628594 C504.598701,290.625156 504.61073,288.975156 504.61073,288.975156 C504.607293,289.525156 505.145124,291.178594 504.59011,291.726875 C504.602138,290.076875 504.064307,288.42 502.992082,284.559687 C502.986927,285.109687 502.966307,287.861406 502.955997,289.511406 C502.40442,289.509687 501.861434,288.404531 501.861434,288.404531 C500.780617,285.644219 500.241068,284.539062 499.703237,282.882187 C499.718701,280.682187 498.646476,276.821875 498.117237,274.063281 C497.582842,271.858125 497.048448,269.652969 495.967631,266.892656 C495.983096,264.690937 495.445265,263.035781 494.907434,261.380625 C494.886814,264.132344 494.316335,266.880625 494.838701,270.7375 L494.838701,270.7375 Z M495.202983,296.059844 C494.110138,294.952969 493.572307,293.296094 493.029321,292.190937 C494.110138,294.952969 495.194392,297.161562 496.2838,298.820156 C495.737377,298.266719 495.744251,297.166719 495.202983,296.059844 L495.202983,296.059844 Z M487.161293,417.101094 C486.590814,419.849375 486.023772,422.045937 485.458448,424.244219 C484.341546,426.439062 483.777941,428.085625 483.216054,429.732187 C483.777941,428.085625 484.350138,425.337344 485.465321,423.144219 C486.587377,420.397656 487.149265,418.752812 487.161293,417.101094 L487.161293,417.101094 Z M482.64042,433.02875 C481.535546,434.121875 480.968504,436.320156 479.298307,439.058125 C478.181406,441.252969 477.614363,443.45125 477.055913,444.549531 C478.731265,441.258125 480.968504,436.320156 482.64042,433.02875 L482.64042,433.02875 Z M476.497462,445.644375 L476.494025,446.196094 L476.497462,445.644375 Z M461.453659,395.994844 C461.926194,406.456875 461.307603,415.810312 461.793885,424.620625 C462.319687,427.929219 462.292194,431.779219 462.821434,434.534375 C462.800814,437.287812 463.873039,441.148125 464.402279,443.905 C464.941828,445.560156 465.483096,446.665312 466.024363,447.76875 C466.014054,449.420469 467.10518,450.529062 467.101744,451.079062 L467.653321,451.084219 L468.20318,451.087656 C468.753039,451.092812 469.304617,451.09625 469.861349,449.999687 C470.966223,449.456562 472.079687,447.813437 473.186279,446.722031 C473.746448,445.625469 474.299744,445.078906 474.858194,443.982344 C475.975096,441.7875 477.650448,438.496094 478.767349,436.304687 C480.997715,432.465 483.228082,428.082187 483.807152,424.230469 C486.044392,419.294219 487.169885,415.999375 488.302251,411.60625 C488.87273,408.85625 488.87273,408.85625 489.434617,407.209687 C489.443208,406.107969 489.432899,407.759687 489.434617,407.209687 C490.558392,403.913125 491.680448,401.17 491.683885,400.62 C491.675293,401.721719 491.675293,401.721719 490.563546,403.363125 C490.554955,404.463125 491.680448,401.17 491.680448,401.17 C491.675293,401.721719 491.66842,402.82 490.554955,404.463125 C491.675293,401.721719 491.675293,401.721719 492.250927,398.423437 L492.24749,398.973437 C492.24749,398.973437 492.250927,398.423437 492.262955,396.771719 C492.250927,398.423437 492.817969,396.223437 493.374701,395.126875 C493.371265,395.676875 492.817969,396.223437 492.812814,396.775156 C492.817969,396.223437 492.817969,396.223437 493.371265,395.676875 L493.379856,394.575156 C493.938307,393.482031 493.371265,395.676875 492.812814,396.775156 C492.817969,396.223437 493.379856,394.575156 493.93487,394.032031 C493.94518,392.380312 494.512223,390.182031 494.529406,387.980312 C499.0898,366.545781 502.522983,348.406094 504.837546,333.01125 C496.594814,331.299375 490.020561,327.397812 485.102758,322.406562 C485.645744,323.513437 486.738589,324.622031 487.831434,325.730625 C489.474138,326.842656 492.759546,329.070156 494.95211,330.187344 C494.95211,330.187344 496.05011,330.744219 496.594814,331.299375 C497.146392,331.302812 497.692814,331.857969 498.242673,331.861406 C498.789096,332.416562 502.632955,333.545781 503.732673,333.554375 C503.732673,333.554375 502.583124,340.149219 502.012645,342.899219 L502.009208,343.4475 C501.455913,343.995781 501.450758,344.545781 501.450758,344.545781 C501.447321,345.095781 501.435293,346.7475 501.430138,347.299219 C501.423265,348.399219 500.313237,349.492344 500.301208,351.144062 C499.737603,353.338906 499.711828,356.642344 499.696363,358.844062 C499.6998,358.294062 499.723856,354.990625 499.723856,354.990625 C499.716983,356.092344 499.6998,358.294062 499.687772,359.945781 C499.125885,361.592344 499.113856,363.244062 499.108701,363.794062 C499.122448,362.142344 499.67918,361.045781 499.687772,359.945781 C499.122448,362.142344 498.522758,368.744062 497.943687,372.592344 C498.519321,369.292344 498.538223,366.542344 499.108701,363.794062 C499.122448,362.142344 499.684335,360.495781 499.696363,358.844062 C499.708392,357.192344 499.72042,355.540625 499.737603,353.338906 C500.292617,352.244062 500.306363,350.594062 500.321828,348.390625 C500.325265,347.840625 500.333856,346.738906 500.337293,346.188906 L500.351039,344.537187 C500.351039,344.537187 500.354476,343.987187 501.459349,343.444062 L501.462786,342.895781 L501.516054,335.738906 C501.516054,335.738906 500.41118,336.280312 498.21518,335.714844 C496.567321,335.151094 495.471039,334.594219 493.82318,334.032187 C489.984476,332.35125 486.14749,330.122031 483.420532,326.799687 C483.417096,327.349687 483.9618,327.903125 485.051208,329.563437 L486.144054,330.672031 C486.693913,330.677187 487.240335,331.230625 488.336617,331.789219 C488.888194,331.792656 489.434617,332.347812 489.984476,332.35125 C489.981039,332.902969 489.981039,332.902969 490.530899,332.906406 L491.075603,333.461562 L492.726899,333.473594 C493.273321,334.027031 493.82318,334.032187 494.369603,334.585625 C494.919462,334.589062 494.919462,334.589062 495.471039,334.594219 C495.467603,335.144219 495.467603,335.144219 496.017462,335.147656 C496.017462,335.147656 496.563885,335.702812 497.113744,335.70625 C497.665321,335.709687 498.210025,336.266562 498.761603,336.27 L501.507462,336.840625 C501.507462,336.840625 501.474814,341.244062 501.466223,342.345781 C501.466223,342.345781 501.462786,342.895781 501.459349,343.444062 C499.716983,356.092344 497.955715,370.940625 495.682392,380.832031 C495.111913,383.582031 495.091293,386.33375 493.979546,387.976875 C495.106758,384.132031 495.682392,380.832031 497.366335,376.442344 C497.373208,375.340625 497.3818,374.238906 497.390392,373.138906 C497.397265,372.037187 497.405856,370.937187 497.964307,369.840625 C498.531349,367.642344 498.546814,365.442344 498.558842,363.790625 C498.576025,361.588906 499.692927,359.395781 499.708392,357.192344 C499.72042,355.540625 499.741039,352.790625 500.306363,350.594062 C500.321828,348.390625 500.333856,346.738906 500.351039,344.537187 C501.459349,343.444062 501.462786,342.895781 501.471377,341.794062 L501.478251,340.694062 L501.474814,341.244062 C500.375096,341.235469 498.725518,341.221719 497.627518,340.664844 C497.077659,340.659687 496.526082,340.65625 496.526082,340.65625 C495.976223,340.651094 495.426363,340.647656 495.426363,340.647656 C494.330082,340.089062 493.778504,340.085625 492.678786,340.077031 C489.386504,338.952969 485.549518,336.722031 483.363828,334.504844 C481.719406,333.942813 481.172983,333.389375 480.626561,332.834219 C478.98042,332.270469 478.437434,331.167031 477.891011,330.611875 C477.344589,330.056719 476.801603,328.953281 476.260335,327.846406 C475.164054,327.289531 475.164054,327.289531 474.617631,326.734375 C474.047152,329.482656 474.026532,332.234375 472.911349,334.4275 C469.536589,344.312031 467.804532,355.308594 466.081068,365.205156 C464.904025,375.653437 462.630701,385.544844 461.453659,395.994844 L461.453659,395.994844 Z M457.556532,402.020781 L457.551377,402.570781 C457.556532,402.020781 457.03073,398.715625 457.037603,397.613906 C457.046194,396.512187 457.568561,400.370781 457.556532,402.020781 L457.556532,402.020781 Z M604.16273,221.448906 L604.159293,221.998906 C601.911744,228.038594 599.669349,233.526562 597.975096,239.567969 C595.73442,245.055937 592.942166,250.540469 590.696335,256.578438 C588.455659,262.066406 585.663406,267.550937 582.867715,273.585469 C579.525603,279.064844 576.733349,284.549375 573.386082,290.580469 C570.049124,295.509844 567.262025,300.442656 562.818476,305.913437 C559.484955,310.292812 555.046561,315.215312 551.16318,319.589531 C546.726504,323.960312 542.303575,327.231094 537.323913,330.496719 C532.902701,333.2175 527.936786,334.831406 523.524166,336.450469 C522.969152,336.997031 522.957124,338.64875 522.948532,339.74875 C522.938223,341.400469 522.374617,343.04875 521.81273,344.695312 C521.228504,349.093594 520.654589,352.391875 518.970645,356.783281 C517.817659,363.931562 516.116532,371.074687 514.958392,378.77125 C513.829462,382.616094 515.537462,374.924688 516.092476,374.376406 C515.530589,376.024688 514.391349,380.969531 513.82087,383.717812 C512.693659,387.562656 511.559575,391.959219 510.992532,394.155781 C512.676476,389.766094 513.817434,384.267812 515.509969,378.776406 C516.095913,373.826406 517.23687,368.331563 517.817659,363.931562 C516.102786,372.726406 514.387913,381.52125 511.556138,392.509219 C509.313744,397.997187 508.722645,403.497187 507.024955,410.090312 C504.775687,416.68 502.521265,423.817969 499.160251,432.049062 C501.390617,427.662812 504.200054,419.978281 507.004335,412.840312 C508.714054,404.597188 510.973631,396.9075 513.214307,391.419531 C513.781349,389.22125 513.765885,391.422969 513.190251,394.72125 C512.064758,398.016094 510.940983,401.310938 510.928955,402.960938 C508.104054,412.848906 505.292899,421.085156 503.026448,429.876562 C499.66887,437.557656 496.857715,445.793906 493.49842,453.476719 C492.366054,457.871562 489.585828,461.704375 487.348589,466.640625 C485.673237,469.932031 482.88442,474.864844 479.007913,478.690781 C478.44087,480.889062 475.669237,483.620156 474.004194,485.259844 C471.79273,486.894375 469.579546,488.528906 467.366363,490.166875 C465.148025,492.349687 461.288701,493.422187 458.529096,494.501562 C456.322786,495.037812 453.023631,495.012031 450.270899,494.991406 C450.270899,494.991406 449.721039,494.987969 449.169462,494.982812 C449.721039,494.987969 449.721039,494.987969 450.270899,494.991406 C443.667434,494.943281 438.175715,493.25375 432.706335,488.810781 C428.324645,486.024687 423.411997,480.485156 419.050927,474.947344 C415.793011,468.869844 413.088392,462.245781 411.486927,455.625156 C409.330448,449.55625 407.73242,442.389062 406.684251,435.225312 C404.575885,422.549531 404.125687,408.785781 404.776927,395.027187 C404.878307,381.266875 406.075969,368.066875 407.270194,355.413437 C409.571011,341.670312 411.868392,328.475469 413.617631,315.278906 C417.659096,289.439219 424.451575,263.615 430.689039,238.340781 C432.988138,225.147656 436.3818,212.511406 439.77718,199.876875 C443.172561,187.242344 447.664223,175.164687 452.157603,162.537031 C459.493068,137.819687 469.572673,114.224687 479.643687,91.7314062 C485.783208,79.6657812 491.914138,69.2535937 498.589772,59.393125 C505.82042,48.9878125 513.042476,39.6842187 520.810955,30.9340625 C528.574279,22.7339062 537.440758,14.540625 547.386335,9.109375 C552.353969,6.94546875 557.326758,4.22984375 563.392392,2.6228125 C568.356589,1.0071875 573.312194,0.49328125 578.812504,1.0828125 C581.010223,1.65171875 583.204504,2.2171875 587.0518,3.34640625 L587.601659,3.34984375 L587.046645,3.89640625 L587.596504,3.9015625 C588.142927,4.455 588.685913,5.56015625 588.685913,5.56015625 C590.333772,6.1221875 591.42318,7.2325 592.519462,7.79109375 C594.15873,9.453125 596.90287,10.57375 598.538701,12.7875 C600.171096,15.00125 602.353349,17.7701562 603.984025,20.5339062 C605.611265,23.849375 606.692082,26.6096875 607.223039,29.3648437 C607.745406,33.2217187 608.815913,37.08375 608.236842,40.9320312 C608.212786,44.23375 607.097603,46.426875 605.966955,50.2734375 C605.944617,53.5751562 603.717687,56.863125 603.147208,59.6096875 C600.351518,65.6442187 598.658983,71.135625 594.217152,76.608125 C591.976476,82.0960937 588.6378,87.0254687 584.749265,91.9514062 C578.073631,101.810156 570.851575,111.115469 563.084814,119.315625 C554.21318,128.607187 546.453293,136.257344 537.586814,144.448906 C530.378504,152.1025 522.067039,159.745781 514.314025,166.295937 C512.61118,173.439062 509.250166,181.670156 507.547321,188.815 C505.28087,197.604687 503.017856,205.844375 499.653406,214.627187 C506.220786,219.630469 509.483856,224.607969 513.834617,231.794062 C516.008279,235.662969 517.635518,238.978437 519.261039,242.293906 C520.891715,245.057656 520.879687,246.709375 520.864223,248.911094 C521.408927,249.464531 521.40549,250.01625 521.40549,250.01625 C521.951913,250.569687 521.948476,251.121406 521.943321,251.669688 L521.936448,252.771406 L523.03273,253.33 L523.029293,253.881719 C523.024138,254.431719 523.020701,254.981719 523.567124,255.535156 C524.615293,262.698906 525.65487,270.964375 526.15318,278.122969 C526.149744,278.672969 526.144589,279.222969 526.694448,279.228125 L526.685856,280.329844 L526.68242,280.879844 C526.673828,281.979844 526.670392,282.529844 526.113659,283.628125 C526.649772,285.283281 526.632589,287.485 526.622279,289.136719 C526.613687,290.236719 526.610251,290.786719 526.053518,291.881562 C526.053518,291.881562 526.048363,292.433281 526.04149,293.533281 C526.572448,295.740156 526.56042,297.390156 526.553546,298.491875 C525.959011,304.543594 525.373068,309.491875 524.781969,314.993594 C529.184279,315.024531 533.59518,313.957187 536.908082,312.329531 C541.88087,309.613906 546.296927,307.444844 550.733603,303.074062 C551.845349,301.429219 553.503518,300.34125 554.061969,299.246406 C555.720138,298.156719 556.830166,297.063594 557.938476,295.96875 C559.057096,293.777344 560.168842,292.1325 562.383744,289.947969 C563.493772,288.856562 563.490335,289.406562 562.933603,289.953125 C562.380307,290.499687 561.821856,291.594531 561.821856,291.594531 C565.155377,287.216875 568.499208,281.7375 570.733011,277.349531 C572.956504,274.061562 574.633575,270.771875 575.738448,270.230469 C574.069969,272.420156 572.961659,273.511562 572.403208,274.609844 C571.848194,275.154688 571.286307,276.802969 569.61611,279.542656 C568.504363,281.1875 570.171124,278.996094 571.291462,276.252969 C572.403208,274.609844 574.624983,271.873594 574.624983,271.873594 C572.403208,274.609844 570.726138,278.449531 567.382307,283.928906 C570.722701,278.999531 571.844758,275.704687 574.063096,273.520156 C575.735011,270.780469 577.412082,266.940781 580.202617,261.454531 C580.211208,260.354531 580.195744,262.55625 579.632138,264.202812 C580.190589,263.10625 580.769659,259.257969 583.546448,255.975156 C580.211208,260.354531 584.659913,254.33375 586.345575,249.390625 C586.342138,249.942344 584.663349,253.782031 583.546448,255.975156 C583.546448,255.975156 583.549885,255.425156 584.654758,254.88375 C585.213208,253.785469 585.225237,252.13375 585.783687,251.038906 C586.342138,249.942344 586.35073,248.840625 587.455603,248.2975 C587.464194,247.1975 587.467631,246.6475 587.467631,246.6475 C588.584532,244.452656 588.575941,245.554375 587.460758,247.7475 C586.338701,250.492344 585.209772,254.337187 583.546448,255.975156 C585.218363,253.235469 587.464194,247.1975 588.575941,245.554375 C588.584532,244.452656 588.584532,244.452656 588.581096,245.004375 C594.179349,231.833594 597.55411,221.950781 597.55411,221.950781 L603.607715,221.995469 C603.607715,221.995469 570.397941,323.032187 520.800645,332.578125 C520.788617,334.229844 520.221575,336.426406 519.104673,338.62125 C519.08749,340.82125 489.92949,489.780156 450.901518,483.989687 C449.255377,483.425937 447.052504,483.410469 444.306645,482.839844 C445.408082,482.848437 445.408082,482.848437 445.957941,482.851875 C446.502645,483.405312 448.700363,483.9725 450.901518,483.989687 C452.549377,484.551719 453.649096,484.560312 455.303828,484.020625 C457.504983,484.036094 459.159715,483.499844 460.816166,482.960156 C465.228786,481.342812 467.450561,478.606562 470.227349,475.32375 C474.102138,472.05125 476.329068,468.763281 479.107575,464.92875 C480.788082,461.089062 483.015011,457.251094 485.243659,453.416562 C485.807265,451.768281 488.035913,447.930312 489.719856,443.540625 C493.056814,438.609531 494.194335,433.664687 495.335293,428.169844 C499.8218,416.642187 503.208589,405.107656 504.892532,400.717969 C504.880504,402.369687 504.313462,404.564531 503.184532,408.411094 C502.614054,411.159375 501.479969,415.554219 499.247885,419.942187 C500.923237,416.650781 502.605462,412.259375 503.739546,407.864531 C504.875349,402.917969 506.007715,398.523125 506.576476,396.324844 C508.248392,393.035156 510.502814,385.895469 511.657518,378.747187 C513.915377,371.0575 515.618223,363.916094 516.747152,360.069531 C517.901856,352.372969 519.059997,344.674688 521.309265,338.086719 C521.323011,336.435 521.888335,334.238438 521.89349,333.688437 C521.89349,333.688437 525.196082,333.710781 526.297518,333.169375 C529.608701,332.091719 532.923321,330.465781 535.6898,328.282969 C541.21073,326.120781 545.085518,322.848281 549.518758,318.4775 C548.965462,319.022344 546.186955,322.306875 543.427349,323.93625 C542.317321,325.031094 540.66087,326.117344 539.554279,326.660469 C539.000983,327.207031 538.449406,327.201875 538.449406,327.201875 C539.554279,326.660469 542.868899,325.032812 545.082082,323.398281 C547.846842,321.218906 549.518758,318.4775 551.737096,316.292969 C557.275208,311.377344 561.160307,307.003125 562.27549,304.81 C560.048561,308.644531 556.716758,312.475625 551.733659,316.842969 C553.398701,314.651562 556.716758,312.475625 559.491828,309.192812 C561.711885,306.456562 564.497265,302.07375 567.27749,298.240937 C571.734786,290.568437 578.403546,281.809687 580.099518,275.766562 C578.403546,281.809687 573.953124,288.382187 570.066307,293.306406 C566.715603,299.8875 562.263462,306.461719 557.275208,311.377344 C552.278363,317.396406 547.834814,322.868906 540.652279,327.219062 C536.222476,330.489844 531.80642,332.658906 526.28549,334.819375 L522.98118,335.345312 C522.98118,335.345312 522.427885,335.891875 522.419293,336.991875 C522.410701,338.093594 522.407265,338.643594 522.403828,339.195312 C521.840223,340.843594 521.828194,342.495312 521.266307,344.141875 C520.690673,347.440156 520.111603,351.288437 518.432814,355.128125 C517.281546,362.274687 516.128561,369.422969 514.420561,377.116094 C510.463293,391.400625 505.95273,406.23 501.995462,420.511094 C498.637885,428.193906 495.837039,434.776719 493.57918,442.468125 C490.223321,449.5975 487.979208,455.637187 484.07349,462.764844 C482.394701,466.60625 479.626504,469.337344 478.506166,472.082187 C475.179518,475.358125 473.502448,478.649531 470.737687,480.832344 C466.859462,484.104844 465.196138,485.744531 460.786955,486.813594 C458.027349,487.894687 453.621603,488.41375 450.874025,487.843125 C450.322448,487.837969 449.772589,487.834531 449.22273,487.829375 C449.769152,488.384531 450.319011,488.387969 450.86887,488.393125 C451.970307,488.4 453.618166,488.96375 455.27118,488.425781 C457.472335,488.44125 459.678645,487.906719 461.336814,486.817031 C464.642842,486.292812 466.301011,485.203125 468.515913,483.568594 C470.732532,481.382344 473.499011,479.20125 475.170927,476.459844 C479.611039,471.540781 482.949715,466.057969 485.745406,460.025156 C489.09611,453.444062 492.441659,447.412969 493.582617,441.916406 C495.257969,438.625 496.941913,434.235312 499.179152,429.300781 C500.869969,423.805937 503.124392,416.667969 505.377096,409.528281 C510.442673,394.152344 514.975575,376.57125 518.405321,358.981562 C520.658025,351.843594 521.81273,344.695312 522.969152,336.997031 L522.977744,335.897031 L523.527603,335.900469 C527.386927,334.827969 531.801265,333.208906 535.121039,331.03125 C539.542251,328.312187 544.515039,325.596562 548.389828,322.320625 C551.175208,317.939531 555.605011,314.11875 558.938532,309.739375 C562.818476,305.913437 566.155434,300.984062 568.940814,296.60125 C574.508138,287.835625 580.078899,278.518281 585.104955,268.6475 C589.02442,259.319844 592.387152,251.087031 596.856476,242.312812 C599.09887,236.273125 601.908307,228.588594 604.159293,221.998906 L604.16273,221.448906 L603.611152,221.44375 C601.409997,221.428281 599.758701,221.41625 597.557546,221.400781 C599.758701,221.41625 601.409997,221.428281 603.611152,221.44375 L604.16273,221.448906 Z" id="Fill-8"></path>
                </g>
                <path d="M219,261.703081 C219,270.313725 223.305322,276 231.997199,276 C240.770308,276 245.07563,270.313725 245.07563,261.703081 L245.07563,232.296919 C245.07563,223.605042 240.770308,218 231.997199,218 C223.305322,218 219,223.605042 219,232.296919 L219,261.703081 Z M225.254902,231.971989 C225.254902,226.854342 227.448179,223.767507 231.997199,223.767507 C236.627451,223.767507 238.739496,226.854342 238.739496,231.971989 L238.739496,262.028011 C238.739496,267.226891 236.627451,270.232493 231.997199,270.232493 C227.448179,270.232493 225.254902,267.226891 225.254902,262.028011 L225.254902,231.971989 Z M251.086835,218.568627 L251.086835,275.431373 L257.422969,275.431373 L257.422969,251.142857 L261.890756,251.142857 C267.170868,251.142857 270.176471,253.173669 270.176471,259.591036 L270.176471,268.526611 C270.176471,272.344538 270.501401,273.806723 271.232493,275.431373 L277.64986,275.431373 C276.593838,273.481793 276.512605,271.12605 276.512605,268.607843 L276.512605,259.753501 C276.512605,253.661064 274.563025,249.436975 269.364146,247.893557 C274.238095,246.35014 276.431373,242.45098 276.431373,236.196078 L276.431373,231.565826 C276.431373,223.117647 272.694678,218.568627 263.759104,218.568627 L251.086835,218.568627 Z M257.422969,245.37535 L257.422969,224.336134 L263.596639,224.336134 C268.308123,224.336134 270.176471,227.016807 270.176471,232.134454 L270.176471,237.577031 C270.176471,243.7507 267.170868,245.37535 262.134454,245.37535 L257.422969,245.37535 Z M301.288515,229.453782 L315.829132,275.431373 L322.408964,275.431373 L322.408964,218.568627 L316.803922,218.568627 L316.803922,259.672269 L303.644258,218.568627 L295.602241,218.568627 L295.602241,275.431373 L301.288515,275.431373 L301.288515,229.453782 Z M349.703081,263.977591 L351.896359,275.431373 L358.232493,275.431373 L347.347339,218.568627 L338.168067,218.568627 L327.282913,275.431373 L333.131653,275.431373 L335.32493,263.977591 L349.703081,263.977591 Z M342.392157,225.717087 L348.809524,258.535014 L336.137255,258.535014 L342.392157,225.717087 Z M383.495798,249.843137 L383.495798,275.431373 L389.831933,275.431373 L389.831933,218.568627 L383.495798,218.568627 L383.495798,244.156863 L369.52381,244.156863 L369.52381,218.568627 L363.187675,218.568627 L363.187675,275.431373 L369.52381,275.431373 L369.52381,249.843137 L383.495798,249.843137 Z" id="OR-NAH" fill="#5D5D5D" sketch:type="MSShapeGroup"></path>
            </g>
        </g>
    </g>
</svg>